# Blender v2.91.2 OBJ File: 'tmaze.blend'
# www.blender.org
mtllib tmaze.mtl
o Cube.008_Cube.009
v -3.044230 -0.004758 10.315186
v -3.044230 2.834634 10.315186
v -3.044230 -0.004758 9.208055
v -3.044230 2.834634 9.208055
v 2.853521 -0.004758 10.315186
v 2.853521 2.834634 10.315186
v 2.853521 -0.004758 9.208055
v 2.853521 2.834634 9.208055
v -1.879240 0.001388 9.199028
v -1.879240 2.840780 9.199028
v -2.986336 0.001388 9.207717
v -2.986336 2.840780 9.207717
v -1.933617 0.001388 2.270429
v -1.933617 2.840780 2.270429
v -3.040712 0.001388 2.279117
v -3.040712 2.840780 2.279117
v 2.881815 -0.013476 9.170010
v 2.881815 2.825916 9.170010
v 1.774719 -0.013476 9.178699
v 1.774719 2.825916 9.178699
v 2.827438 -0.013476 2.241410
v 2.827438 2.825916 2.241410
v 1.720343 -0.013476 2.250098
v 1.720343 2.825916 2.250098
v 11.072489 -0.027194 -2.501260
v 11.072489 2.812198 -2.501260
v 11.081182 -0.027194 -1.393848
v 11.081182 2.812198 -1.393848
v -11.131693 -0.027194 -2.326996
v -11.131693 2.812198 -2.326996
v -11.123001 -0.027194 -1.219584
v -11.123001 2.812198 -1.219584
v -1.945421 -0.027194 1.150323
v -1.945421 2.812198 1.150323
v -1.936731 -0.027194 2.257719
v -1.936731 2.812198 2.257719
v -11.067663 -0.027194 1.221916
v -11.067663 2.812198 1.221916
v -11.058973 -0.027194 2.329312
v -11.058973 2.812198 2.329312
v 11.082098 -0.027194 1.053642
v 11.082098 2.812198 1.053642
v 11.090788 -0.027194 2.161040
v 11.090788 2.812198 2.161040
v 1.751905 -0.027194 1.126868
v 1.751905 2.812198 1.126868
v 1.760595 -0.027194 2.234266
v 1.760595 2.812198 2.234266
v -11.108281 0.001388 2.343990
v -11.108281 2.840780 2.343990
v -12.215359 0.001388 2.352679
v -12.215359 2.840780 2.352679
v -11.144922 0.001388 -2.324847
v -11.144922 2.840780 -2.324847
v -12.252000 0.001388 -2.316158
v -12.252000 2.840780 -2.316158
v 12.241701 0.001388 2.160918
v 12.241701 2.840780 2.160918
v 11.134626 0.001388 2.169607
v 11.134626 2.840780 2.169607
v 12.205061 0.001388 -2.507918
v 12.205061 2.840780 -2.507918
v 11.097986 0.001388 -2.499230
v 11.097986 2.840780 -2.499230
vt 0.375000 0.000000
vt 0.625000 0.000000
vt 0.625000 0.250000
vt 0.375000 0.250000
vt 0.625000 0.500000
vt 0.375000 0.500000
vt 0.625000 0.750000
vt 0.375000 0.750000
vt 0.625000 1.000000
vt 0.375000 1.000000
vt 0.125000 0.500000
vt 0.125000 0.750000
vt 0.875000 0.500000
vt 0.875000 0.750000
vt 0.375000 0.000000
vt 0.625000 0.000000
vt 0.625000 0.250000
vt 0.375000 0.250000
vt 0.625000 0.500000
vt 0.375000 0.500000
vt 0.625000 0.750000
vt 0.375000 0.750000
vt 0.625000 1.000000
vt 0.375000 1.000000
vt 0.125000 0.500000
vt 0.125000 0.750000
vt 0.875000 0.500000
vt 0.875000 0.750000
vt 0.375000 0.000000
vt 0.625000 0.000000
vt 0.625000 0.250000
vt 0.375000 0.250000
vt 0.625000 0.500000
vt 0.375000 0.500000
vt 0.625000 0.750000
vt 0.375000 0.750000
vt 0.625000 1.000000
vt 0.375000 1.000000
vt 0.125000 0.500000
vt 0.125000 0.750000
vt 0.875000 0.500000
vt 0.875000 0.750000
vt 0.375000 0.000000
vt 0.625000 0.000000
vt 0.625000 0.250000
vt 0.375000 0.250000
vt 0.625000 0.500000
vt 0.375000 0.500000
vt 0.625000 0.750000
vt 0.375000 0.750000
vt 0.625000 1.000000
vt 0.375000 1.000000
vt 0.125000 0.500000
vt 0.125000 0.750000
vt 0.875000 0.500000
vt 0.875000 0.750000
vt 0.375000 0.000000
vt 0.625000 0.000000
vt 0.625000 0.250000
vt 0.375000 0.250000
vt 0.625000 0.500000
vt 0.375000 0.500000
vt 0.625000 0.750000
vt 0.375000 0.750000
vt 0.625000 1.000000
vt 0.375000 1.000000
vt 0.125000 0.500000
vt 0.125000 0.750000
vt 0.875000 0.500000
vt 0.875000 0.750000
vt 0.375000 0.000000
vt 0.625000 0.000000
vt 0.625000 0.250000
vt 0.375000 0.250000
vt 0.625000 0.500000
vt 0.375000 0.500000
vt 0.625000 0.750000
vt 0.375000 0.750000
vt 0.625000 1.000000
vt 0.375000 1.000000
vt 0.125000 0.500000
vt 0.125000 0.750000
vt 0.875000 0.500000
vt 0.875000 0.750000
vt 0.375000 0.000000
vt 0.625000 0.000000
vt 0.625000 0.250000
vt 0.375000 0.250000
vt 0.625000 0.500000
vt 0.375000 0.500000
vt 0.625000 0.750000
vt 0.375000 0.750000
vt 0.625000 1.000000
vt 0.375000 1.000000
vt 0.125000 0.500000
vt 0.125000 0.750000
vt 0.875000 0.500000
vt 0.875000 0.750000
vt 0.375000 0.000000
vt 0.625000 0.000000
vt 0.625000 0.250000
vt 0.375000 0.250000
vt 0.625000 0.500000
vt 0.375000 0.500000
vt 0.625000 0.750000
vt 0.375000 0.750000
vt 0.625000 1.000000
vt 0.375000 1.000000
vt 0.125000 0.500000
vt 0.125000 0.750000
vt 0.875000 0.500000
vt 0.875000 0.750000
vn -1.0000 0.0000 0.0000
vn 0.0000 0.0000 -1.0000
vn 1.0000 0.0000 0.0000
vn 0.0000 0.0000 1.0000
vn 0.0000 -1.0000 0.0000
vn 0.0000 1.0000 0.0000
vn 0.0078 0.0000 1.0000
vn -1.0000 0.0000 0.0078
vn -0.0078 0.0000 -1.0000
vn 1.0000 0.0000 -0.0078
vn 1.0000 0.0000 -0.0079
usemtl Material.001
s off
f 1/1/1 2/2/1 4/3/1 3/4/1
f 3/4/2 4/3/2 8/5/2 7/6/2
f 7/6/3 8/5/3 6/7/3 5/8/3
f 5/8/4 6/7/4 2/9/4 1/10/4
f 3/11/5 7/6/5 5/8/5 1/12/5
f 8/5/6 4/13/6 2/14/6 6/7/6
f 9/15/7 10/16/7 12/17/7 11/18/7
f 11/18/8 12/17/8 16/19/8 15/20/8
f 15/20/9 16/19/9 14/21/9 13/22/9
f 13/22/10 14/21/10 10/23/10 9/24/10
f 11/25/5 15/20/5 13/22/5 9/26/5
f 16/19/6 12/27/6 10/28/6 14/21/6
f 17/29/7 18/30/7 20/31/7 19/32/7
f 19/32/8 20/31/8 24/33/8 23/34/8
f 23/34/9 24/33/9 22/35/9 21/36/9
f 21/36/10 22/35/10 18/37/10 17/38/10
f 19/39/5 23/34/5 21/36/5 17/40/5
f 24/33/6 20/41/6 18/42/6 22/35/6
f 25/43/11 26/44/11 28/45/11 27/46/11
f 27/46/7 28/45/7 32/47/7 31/48/7
f 31/48/8 32/47/8 30/49/8 29/50/8
f 29/50/9 30/49/9 26/51/9 25/52/9
f 27/53/5 31/48/5 29/50/5 25/54/5
f 32/47/6 28/55/6 26/56/6 30/49/6
f 33/57/10 34/58/10 36/59/10 35/60/10
f 35/60/7 36/59/7 40/61/7 39/62/7
f 39/62/8 40/61/8 38/63/8 37/64/8
f 37/64/9 38/63/9 34/65/9 33/66/9
f 35/67/5 39/62/5 37/64/5 33/68/5
f 40/61/6 36/69/6 34/70/6 38/63/6
f 41/71/10 42/72/10 44/73/10 43/74/10
f 43/74/7 44/73/7 48/75/7 47/76/7
f 47/76/8 48/75/8 46/77/8 45/78/8
f 45/78/9 46/77/9 42/79/9 41/80/9
f 43/81/5 47/76/5 45/78/5 41/82/5
f 48/75/6 44/83/6 42/84/6 46/77/6
f 49/85/7 50/86/7 52/87/7 51/88/7
f 51/88/8 52/87/8 56/89/8 55/90/8
f 55/90/9 56/89/9 54/91/9 53/92/9
f 53/92/10 54/91/10 50/93/10 49/94/10
f 51/95/5 55/90/5 53/92/5 49/96/5
f 56/89/6 52/97/6 50/98/6 54/91/6
f 57/99/7 58/100/7 60/101/7 59/102/7
f 59/102/8 60/101/8 64/103/8 63/104/8
f 63/104/9 64/103/9 62/105/9 61/106/9
f 61/106/10 62/105/10 58/107/10 57/108/10
f 59/109/5 63/104/5 61/106/5 57/110/5
f 64/103/6 60/111/6 58/112/6 62/105/6
