# Blender v2.91.2 OBJ File: 'corridor.blend'
# www.blender.org
mtllib crossroad.mtl
o Cube
v -0.141615 0.001080 0.762632
v -0.141615 0.067884 0.762632
v -0.141615 0.001080 -0.741886
v -0.141615 0.067884 -0.741886
v -0.102058 0.001080 0.762632
v -0.102058 0.067884 0.762632
v -0.102058 0.001080 -0.741886
v -0.102058 0.067884 -0.741886
v -0.102058 0.067884 -0.699586
v -0.141615 0.001080 -0.699586
v -0.102058 0.001080 -0.699586
v -0.141615 0.067884 -0.699586
v -0.102058 0.067884 -0.699586
v -0.102058 0.067884 -0.741886
v -0.102058 0.001080 -0.741886
v -0.102058 0.001080 -0.699586
v -0.102058 0.067884 -0.699586
v -0.102058 0.067884 -0.741886
v -0.102058 0.001080 -0.741886
v -0.102058 0.001080 -0.699586
v 0.138666 0.067884 -0.699586
v 0.138666 0.067884 -0.741886
v 0.138666 0.001080 -0.741886
v 0.138666 0.001080 -0.699586
v 0.100717 0.001080 -0.699586
v 0.100717 0.001080 -0.741886
v 0.100717 0.067884 -0.741886
v 0.100717 0.067884 -0.699586
v 0.138666 0.001080 -0.699586
v 0.138666 0.067884 -0.699586
v 0.100717 0.001080 -0.699586
v 0.100717 0.067884 -0.699586
v 0.138666 0.001080 -0.699586
v 0.138666 0.067884 -0.699586
v 0.100717 0.001080 -0.699586
v 0.100717 0.067884 -0.699586
v 0.138666 0.001080 -0.100274
v 0.138666 0.067884 -0.100274
v 0.100717 0.001080 -0.100274
v 0.100717 0.067884 -0.100274
v 0.100717 0.067884 -0.168122
v 0.100717 0.001080 -0.168122
v 0.138666 0.001080 -0.168122
v 0.138666 0.067884 -0.168122
v 0.774869 0.001080 -0.100274
v 0.774869 0.067884 -0.100274
v 0.774869 0.067884 -0.168122
v 0.774869 0.001080 -0.168122
v 0.705694 0.001080 -0.100274
v 0.705694 0.001080 -0.168122
v 0.705694 0.067884 -0.100274
v 0.705694 0.067884 -0.168122
v 0.705694 0.001080 -0.100274
v 0.705694 0.001080 -0.168122
v 0.705694 0.067884 -0.100274
v 0.705694 0.067884 -0.168122
v 0.774869 0.001080 -0.100274
v 0.774869 0.067884 -0.100274
v 0.705694 0.001080 -0.100274
v 0.705694 0.067884 -0.100274
v 0.774869 0.001080 0.167318
v 0.774869 0.067884 0.167318
v 0.705694 0.001080 0.167318
v 0.705694 0.067884 0.167318
v 0.705694 0.067884 0.096150
v 0.705694 0.001080 0.096150
v 0.774869 0.001080 0.096150
v 0.774869 0.067884 0.096150
v 0.705694 0.067884 0.167318
v 0.705694 0.001080 0.167318
v 0.705694 0.067884 0.096150
v 0.705694 0.001080 0.096150
v 0.103651 0.067884 0.167318
v 0.103651 0.001080 0.167318
v 0.103651 0.067884 0.096150
v 0.103651 0.001080 0.096150
v 0.145443 0.067884 0.167318
v 0.145443 0.067884 0.096150
v 0.145443 0.001080 0.096150
v 0.145443 0.001080 0.167318
v 0.103651 0.067884 0.758909
v 0.103651 0.001080 0.758909
v 0.145443 0.067884 0.758909
v 0.145443 0.001080 0.758909
v 0.145443 0.067884 0.699292
v 0.103651 0.067884 0.699292
v 0.145443 0.001080 0.699292
v 0.103651 0.001080 0.699292
v -0.092773 0.067884 0.758909
v -0.092773 0.001080 0.758909
v -0.092773 0.067884 0.699292
v -0.092773 0.001080 0.699292
v -0.101308 0.067884 0.758909
v -0.101308 0.001080 0.758909
v -0.101308 0.067884 0.699292
v -0.101308 0.001080 0.699292
v -0.102058 0.001080 -0.168855
v -0.141615 0.067884 -0.168855
v -0.102058 0.067884 -0.168855
v -0.141615 0.001080 -0.168855
v -0.102058 0.002710 -0.099903
v -0.141615 0.069514 -0.099903
v -0.102058 0.069514 -0.099903
v -0.141615 0.002710 -0.099903
v -0.141615 0.002710 -0.099903
v -0.141615 0.001080 -0.168855
v -0.141615 0.067884 -0.168855
v -0.141615 0.069514 -0.099903
v -0.799929 0.002710 -0.099903
v -0.799929 0.001080 -0.168855
v -0.799929 0.067884 -0.168855
v -0.799929 0.069514 -0.099903
v -0.102058 0.004579 0.096443
v -0.141615 0.071383 0.096443
v -0.102058 0.071383 0.096443
v -0.141615 0.004579 0.096443
v -0.102058 0.004211 0.166477
v -0.141615 0.071015 0.166477
v -0.102058 0.071015 0.166477
v -0.141615 0.004211 0.166477
v -0.798434 0.004211 0.166477
v -0.798434 0.004579 0.096443
v -0.798434 0.071383 0.096443
v -0.798434 0.071015 0.166477
v -0.700894 0.071383 0.096443
v -0.700894 0.004579 0.096443
v -0.700894 0.071015 0.166477
v -0.700894 0.004211 0.166477
v -0.798434 0.004579 -0.096698
v -0.798434 0.071383 -0.096698
v -0.700894 0.071383 -0.096698
v -0.700894 0.004579 -0.096698
vt 0.625000 0.745610
vt 0.625000 0.750000
vt 0.875000 0.750000
vt 0.875000 0.745610
vt 0.375000 0.750000
vt 0.375000 1.000000
vt 0.625000 1.000000
vt 0.375000 0.157578
vt 0.375000 0.250000
vt 0.625000 0.250000
vt 0.625000 0.157578
vt 0.125000 0.745610
vt 0.125000 0.750000
vt 0.375000 0.745610
vt 0.375000 0.500000
vt 0.625000 0.500000
vt 0.375000 0.642525
vt 0.625000 0.642525
vt 0.125000 0.642525
vt 0.125000 0.745610
vt 0.125000 0.750000
vt 0.875000 0.642525
vt 0.625000 0.004390
vt 0.625000 0.004390
vt 0.375000 0.004390
vt 0.375000 0.004390
vt 0.625000 0.004390
vt 0.375000 0.004390
vt 0.375000 1.000000
vt 0.625000 1.000000
vt 0.875000 0.750000
vt 0.875000 0.745610
vt 0.875000 0.750000
vt 0.875000 0.750000
vt 0.875000 0.745610
vt 0.875000 0.745610
vt 0.375000 1.000000
vt 0.625000 1.000000
vt 0.875000 0.750000
vt 0.875000 0.745610
vt 0.125000 0.745610
vt 0.125000 0.750000
vt 0.375000 0.000000
vt 0.375000 0.004390
vt 0.625000 0.004390
vt 0.625000 0.000000
vt 0.125000 0.745610
vt 0.125000 0.745610
vt 0.125000 0.750000
vt 0.125000 0.750000
vt 0.375000 0.004390
vt 0.625000 0.004390
vt 0.375000 1.000000
vt 0.375000 1.000000
vt 0.625000 1.000000
vt 0.625000 1.000000
vt 0.625000 0.004390
vt 0.375000 0.004390
vt 0.125000 0.745610
vt 0.125000 0.745610
vt 0.125000 0.745610
vt 0.125000 0.745610
vt 0.875000 0.745610
vt 0.875000 0.745610
vt 0.625000 0.004390
vt 0.375000 0.004390
vt 0.625000 0.004390
vt 0.625000 0.004390
vt 0.375000 0.004390
vt 0.375000 0.004390
vt 0.375000 0.004390
vt 0.625000 0.004390
vt 0.625000 0.004390
vt 0.375000 0.004390
vt 0.875000 0.745610
vt 0.875000 0.745610
vt 0.625000 0.004390
vt 0.375000 0.004390
vt 0.875000 0.745610
vt 0.875000 0.745610
vt 0.875000 0.745610
vt 0.875000 0.745610
vt 0.125000 0.745610
vt 0.125000 0.745610
vt 0.125000 0.745610
vt 0.125000 0.745610
vt 0.875000 0.745610
vt 0.875000 0.745610
vt 0.875000 0.745610
vt 0.875000 0.745610
vt 0.375000 0.004390
vt 0.625000 0.004390
vt 0.375000 0.004390
vt 0.375000 0.004390
vt 0.625000 0.004390
vt 0.625000 0.004390
vt 0.625000 0.004390
vt 0.625000 0.004390
vt 0.375000 0.004390
vt 0.375000 0.004390
vt 0.125000 0.745610
vt 0.125000 0.745610
vt 0.125000 0.745610
vt 0.125000 0.745610
vt 0.375000 0.004390
vt 0.625000 0.004390
vt 0.625000 0.004390
vt 0.375000 0.004390
vt 0.375000 0.004390
vt 0.625000 0.004390
vt 0.875000 0.745610
vt 0.875000 0.745610
vt 0.125000 0.745610
vt 0.125000 0.745610
vt 0.125000 0.745610
vt 0.125000 0.745610
vt 0.125000 0.745610
vt 0.125000 0.745610
vt 0.125000 0.745610
vt 0.125000 0.745610
vt 0.875000 0.745610
vt 0.875000 0.745610
vt 0.375000 0.004390
vt 0.625000 0.004390
vt 0.625000 0.004390
vt 0.625000 0.004390
vt 0.375000 0.004390
vt 0.375000 0.004390
vt 0.875000 0.745610
vt 0.875000 0.745610
vt 0.875000 0.745610
vt 0.875000 0.745610
vt 0.125000 0.745610
vt 0.125000 0.745610
vt 0.375000 0.004390
vt 0.625000 0.004390
vt 0.625000 0.004390
vt 0.375000 0.004390
vt 0.125000 0.745610
vt 0.125000 0.745610
vt 0.125000 0.745610
vt 0.125000 0.745610
vt 0.625000 0.004390
vt 0.375000 0.004390
vt 0.875000 0.745610
vt 0.875000 0.745610
vt 0.375000 0.004390
vt 0.625000 0.004390
vt 0.625000 0.004390
vt 0.625000 0.004390
vt 0.375000 0.004390
vt 0.375000 0.004390
vt 0.875000 0.745610
vt 0.875000 0.745610
vt 0.875000 0.745610
vt 0.875000 0.745610
vt 0.125000 0.745610
vt 0.125000 0.745610
vt 0.125000 0.745610
vt 0.125000 0.745610
vt 0.625000 0.004390
vt 0.375000 0.004390
vt 0.375000 0.004390
vt 0.625000 0.004390
vt 0.375000 0.004390
vt 0.375000 0.004390
vt 0.625000 0.004390
vt 0.625000 0.004390
vt 0.375000 0.004390
vt 0.625000 0.004390
vt 0.375000 0.004390
vt 0.625000 0.004390
vt 0.875000 0.745610
vt 0.875000 0.745610
vt 0.875000 0.745610
vt 0.875000 0.745610
vt 0.625000 0.004390
vt 0.375000 0.004390
vt 0.875000 0.745610
vt 0.875000 0.745610
vt 0.875000 0.745610
vt 0.875000 0.745610
vt 0.125000 0.745610
vt 0.125000 0.745610
vt 0.625000 0.004390
vt 0.375000 0.004390
vt 0.625000 0.004390
vt 0.625000 0.004390
vt 0.375000 0.004390
vt 0.375000 0.004390
vt 0.125000 0.745610
vt 0.125000 0.745610
vt 0.625000 0.635792
vt 0.875000 0.635791
vt 0.125000 0.635791
vt 0.375000 0.635792
vt 0.625000 0.635792
vt 0.625000 0.642525
vt 0.375000 0.107475
vt 0.625000 0.107475
vt 0.375000 0.114208
vt 0.375000 0.635792
vt 0.625000 0.114208
vt 0.375000 0.642525
vt 0.375000 0.642525
vt 0.375000 0.635792
vt 0.625000 0.642525
vt 0.625000 0.635792
vt 0.625000 0.592422
vt 0.625000 0.603280
vt 0.875000 0.603280
vt 0.875000 0.592422
vt 0.125000 0.592422
vt 0.125000 0.603280
vt 0.375000 0.603280
vt 0.375000 0.592423
vt 0.375000 0.603280
vt 0.375000 0.603280
vt 0.625000 0.603280
vt 0.625000 0.603280
vt 0.125000 0.500000
vt 0.875000 0.500000
vt 0.375000 0.146720
vt 0.625000 0.146720
vt 0.375000 0.592423
vt 0.625000 0.592422
vt 0.375000 0.603280
vt 0.375000 0.592422
vt 0.625000 0.592422
vt 0.625000 0.603280
vt 0.625000 0.603280
vt 0.375000 0.603280
vn 0.0000 -1.0000 0.0000
vn 0.0000 0.0000 -1.0000
vn 1.0000 -0.0000 0.0000
vn 0.0000 1.0000 0.0000
vn -1.0000 0.0000 0.0000
vn 0.0000 0.0000 1.0000
vn 0.0000 -0.9997 0.0236
vn 0.0000 0.9997 -0.0236
vn -0.0000 -1.0000 -0.0053
vn 0.0000 1.0000 0.0053
usemtl Material
s off
f 10/1/1 3/2/1 7/3/1 11/4/1
f 4/5/2 8/6/2 7/7/2 3/2/2
f 119/8/3 6/9/3 5/10/3 117/11/3
f 9/12/4 8/13/4 4/5/4 12/14/4
f 12/14/5 4/5/5 3/2/5 10/1/5
f 6/9/6 2/15/6 1/16/6 5/10/6
f 98/17/5 12/14/5 10/1/5 100/18/5
f 99/19/4 9/12/4 12/14/4 98/17/4
f 9/12/6 13/20/6 14/21/6 8/13/6
f 100/18/1 10/1/1 11/4/1 97/22/1
f 16/23/6 20/24/6 17/25/6 13/26/6
f 11/27/6 16/23/6 13/26/6 9/28/6
f 8/6/6 14/29/6 15/30/6 7/7/6
f 7/3/6 15/31/6 16/32/6 11/4/6
f 26/33/1 23/34/1 24/35/1 25/36/1
f 14/29/6 18/37/6 19/38/6 15/30/6
f 15/31/6 19/39/6 20/40/6 16/32/6
f 13/20/6 17/41/6 18/42/6 14/21/6
f 22/43/3 21/44/3 24/45/3 23/46/3
f 28/47/4 21/48/4 22/49/4 27/50/4
f 21/44/6 30/51/6 29/52/6 24/45/6
f 27/53/2 22/54/2 23/55/2 26/56/2
f 18/37/2 27/53/2 26/56/2 19/38/2
f 20/24/6 25/57/6 28/58/6 17/25/6
f 17/41/4 28/47/4 27/50/4 18/42/4
f 19/39/1 26/33/1 25/36/1 20/40/1
f 32/59/6 36/60/6 34/61/6 30/62/6
f 24/35/6 29/63/6 31/64/6 25/36/6
f 25/57/6 31/65/6 32/66/6 28/58/6
f 28/47/6 32/59/6 30/62/6 21/48/6
f 42/67/5 39/68/5 40/69/5 41/70/5
f 30/51/6 34/71/6 33/72/6 29/52/6
f 31/65/6 35/73/6 36/74/6 32/66/6
f 29/63/6 33/75/6 35/76/6 31/64/6
f 39/68/6 37/77/6 38/78/6 40/69/6
f 43/79/1 37/80/1 39/81/1 42/82/1
f 41/83/4 40/84/4 38/85/4 44/86/4
f 50/87/1 48/88/1 45/89/1 49/90/1
f 34/71/3 44/91/3 43/92/3 33/72/3
f 36/60/4 41/83/4 44/86/4 34/61/4
f 33/75/1 43/79/1 42/82/1 35/76/1
f 35/73/5 42/67/5 41/70/5 36/74/5
f 47/93/3 46/94/3 45/95/3 48/96/3
f 49/97/6 59/98/6 60/99/6 51/100/6
f 51/101/4 46/102/4 47/103/4 52/104/4
f 52/105/2 47/93/2 48/96/2 50/106/2
f 44/91/2 52/105/2 50/106/2 43/92/2
f 38/85/4 51/101/4 52/104/4 44/86/4
f 37/77/6 49/97/6 51/100/6 38/78/6
f 43/79/1 50/87/1 49/90/1 37/80/1
f 49/97/6 53/107/6 55/108/6 51/100/6
f 52/105/6 56/109/6 54/110/6 50/106/6
f 50/87/6 54/111/6 53/112/6 49/90/6
f 51/101/6 55/113/6 56/114/6 52/104/6
f 65/115/6 71/116/6 69/117/6 64/118/6
f 51/101/6 60/119/6 58/120/6 46/102/6
f 45/89/6 57/121/6 59/122/6 49/90/6
f 46/94/6 58/123/6 57/124/6 45/95/6
f 63/125/6 61/126/6 62/127/6 64/128/6
f 67/129/1 61/130/1 63/131/1 66/132/1
f 65/115/4 64/118/4 62/133/4 68/134/4
f 68/135/3 62/127/3 61/126/3 67/136/3
f 58/123/3 68/135/3 67/136/3 57/124/3
f 60/119/4 65/115/4 68/134/4 58/120/4
f 57/121/1 67/129/1 66/132/1 59/122/1
f 59/98/5 66/137/5 65/138/5 60/99/5
f 78/139/4 75/140/4 73/141/4 77/142/4
f 66/137/6 72/143/6 71/144/6 65/138/6
f 63/131/6 70/145/6 72/146/6 66/132/6
f 64/128/6 69/147/6 70/148/6 63/125/6
f 76/149/5 74/150/5 73/151/5 75/152/5
f 80/153/1 74/154/1 76/155/1 79/156/1
f 86/157/4 81/158/4 83/159/4 85/160/4
f 79/161/2 76/149/2 75/152/2 78/162/2
f 72/143/2 79/161/2 78/162/2 71/144/2
f 69/147/6 77/163/6 80/164/6 70/148/6
f 70/145/1 80/153/1 79/156/1 72/146/1
f 71/116/4 78/139/4 77/142/4 69/117/4
f 83/165/6 81/166/6 82/167/6 84/168/6
f 85/169/3 83/165/3 84/168/3 87/170/3
f 81/166/6 89/171/6 90/172/6 82/167/6
f 87/173/1 84/174/1 82/175/1 88/176/1
f 80/153/1 87/173/1 88/176/1 74/154/1
f 74/150/5 88/177/5 86/178/5 73/151/5
f 77/163/3 85/169/3 87/170/3 80/164/3
f 73/141/4 86/157/4 85/160/4 77/142/4
f 90/179/1 94/180/1 96/181/1 92/182/1
f 82/175/1 90/179/1 92/182/1 88/176/1
f 86/157/4 91/183/4 89/184/4 81/158/4
f 88/177/2 92/185/2 91/186/2 86/178/2
f 96/187/5 94/188/5 93/189/5 95/190/5
f 89/171/6 93/189/6 94/188/6 90/172/6
f 92/185/2 96/187/2 95/190/2 91/186/2
f 91/183/4 95/191/4 93/192/4 89/184/4
f 104/193/7 100/18/7 97/22/7 101/194/7
f 103/195/8 99/19/8 98/17/8 102/196/8
f 104/193/6 105/197/6 106/198/6 100/18/6
f 9/28/3 99/199/3 97/200/3 11/27/3
f 103/201/6 108/202/6 105/197/6 101/203/6
f 99/199/3 103/201/3 101/203/3 97/200/3
f 107/204/8 111/205/8 112/206/8 108/202/8
f 102/196/6 108/202/6 105/197/6 104/193/6
f 100/18/6 106/198/6 107/204/6 98/17/6
f 98/17/6 107/204/6 108/202/6 102/196/6
f 112/206/5 111/205/5 110/207/5 109/208/5
f 105/197/7 109/208/7 110/207/7 106/198/7
f 108/202/6 112/206/6 109/208/6 105/197/6
f 106/198/2 110/207/2 111/205/2 107/204/2
f 120/209/9 116/210/9 113/211/9 117/212/9
f 119/213/10 115/214/10 114/215/10 118/216/10
f 123/217/5 130/218/5 129/219/5 122/220/5
f 2/15/5 118/216/5 120/209/5 1/16/5
f 6/221/10 119/213/10 118/216/10 2/15/10
f 1/16/9 120/209/9 117/212/9 5/222/9
f 115/223/3 119/8/3 117/11/3 113/224/3
f 124/225/5 123/217/5 122/220/5 121/226/5
f 125/227/10 123/217/10 124/225/10 127/228/10
f 128/229/9 121/226/9 122/220/9 126/230/9
f 127/228/6 124/225/6 121/226/6 128/229/6
f 118/216/6 127/228/6 128/229/6 120/209/6
f 120/209/9 128/229/9 126/230/9 116/210/9
f 114/215/10 125/227/10 127/228/10 118/216/10
f 116/210/2 126/230/2 125/227/2 114/215/2
f 132/231/2 129/219/2 130/218/2 131/232/2
f 125/227/4 131/232/4 130/218/4 123/217/4
f 126/230/3 132/231/3 131/232/3 125/227/3
f 122/220/1 129/219/1 132/231/1 126/230/1
