# Blender v2.91.2 OBJ File: ''
# www.blender.org
mtllib ir.mtl
o Cube
v 0.006211 0.005820 0.002341
v 0.006211 -0.006383 0.004666
v 0.006211 0.006383 0.005294
v 0.006211 -0.005820 0.007619
v -0.006211 0.005820 0.002341
v -0.006211 -0.006383 0.004666
v -0.006211 0.006383 0.005294
v -0.006211 -0.005820 0.007619
vt 0.625000 0.500000
vt 0.875000 0.500000
vt 0.875000 0.750000
vt 0.625000 0.750000
vt 0.375000 0.750000
vt 0.625000 1.000000
vt 0.375000 1.000000
vt 0.375000 0.000000
vt 0.625000 0.000000
vt 0.625000 0.250000
vt 0.375000 0.250000
vt 0.125000 0.500000
vt 0.375000 0.500000
vt 0.125000 0.750000
vn 0.0000 0.9823 -0.1872
vn 0.0000 0.1872 0.9823
vn -1.0000 -0.0000 0.0000
vn 0.0000 -0.9823 0.1872
vn 1.0000 0.0000 0.0000
vn 0.0000 -0.1872 -0.9823
usemtl Material
s off
f 1/1/1 5/2/1 7/3/1 3/4/1
f 4/5/2 3/4/2 7/6/2 8/7/2
f 8/8/3 7/9/3 5/10/3 6/11/3
f 6/12/4 2/13/4 4/5/4 8/14/4
f 2/13/5 1/1/5 3/4/5 4/5/5
f 6/11/6 5/10/6 1/1/6 2/13/6
