# Blender v2.91.2 OBJ File: 'led_base.blend'
# www.blender.org
mtllib led_base.mtl
o Cylinder
v -0.000263 0.080046 -0.514534
v -0.000263 0.049612 -0.514534
v 0.050320 0.080046 -0.510553
v 0.050320 0.049612 -0.510553
v 0.099657 0.080046 -0.498708
v 0.099657 0.049612 -0.498708
v 0.146534 0.080046 -0.479291
v 0.146534 0.049612 -0.479291
v 0.189796 0.080046 -0.452780
v 0.189796 0.049612 -0.452780
v 0.228378 0.080046 -0.419827
v 0.228378 0.049612 -0.419827
v 0.261331 0.080046 -0.381245
v 0.261331 0.049612 -0.381245
v 0.287842 0.080046 -0.337983
v 0.287842 0.049612 -0.337983
v 0.307259 0.080046 -0.291106
v 0.307259 0.049612 -0.291106
v 0.319104 0.080046 -0.241769
v 0.319104 0.049612 -0.241769
v 0.323085 0.080046 -0.191186
v 0.323085 0.049612 -0.191186
v 0.319104 0.080046 -0.140603
v 0.319104 0.049612 -0.140603
v 0.307259 0.080046 -0.091266
v 0.307259 0.049612 -0.091266
v 0.287842 0.080046 -0.044389
v 0.287842 0.049612 -0.044389
v 0.261331 0.080046 -0.001127
v 0.261331 0.049612 -0.001127
v 0.228378 0.080046 0.037455
v 0.228378 0.049612 0.037455
v 0.189796 0.080046 0.070407
v 0.189796 0.049612 0.070407
v 0.146534 0.080046 0.096919
v 0.146534 0.049612 0.096919
v 0.099657 0.080046 0.116336
v 0.099657 0.049612 0.116336
v 0.050320 0.080046 0.128180
v 0.050320 0.049612 0.128180
v -0.000263 0.080046 0.132161
v -0.000263 0.049612 0.132161
v -0.050846 0.080046 0.128180
v -0.050846 0.049612 0.128180
v -0.100183 0.080046 0.116335
v -0.100183 0.049612 0.116335
v -0.147060 0.080046 0.096918
v -0.147060 0.049612 0.096918
v -0.190322 0.080046 0.070407
v -0.190322 0.049612 0.070407
v -0.228904 0.080046 0.037455
v -0.228904 0.049612 0.037455
v -0.261857 0.080046 -0.001128
v -0.261857 0.049612 -0.001128
v -0.288368 0.080046 -0.044390
v -0.288368 0.049612 -0.044390
v -0.307785 0.080046 -0.091267
v -0.307785 0.049612 -0.091267
v -0.319629 0.080046 -0.140604
v -0.319629 0.049612 -0.140604
v -0.323610 0.080046 -0.191187
v -0.323610 0.049612 -0.191187
v -0.319629 0.080046 -0.241769
v -0.319629 0.049612 -0.241769
v -0.307784 0.080046 -0.291107
v -0.307784 0.049612 -0.291107
v -0.288367 0.080046 -0.337983
v -0.288367 0.049612 -0.337983
v -0.261856 0.080046 -0.381245
v -0.261856 0.049612 -0.381245
v -0.228904 0.080046 -0.419828
v -0.228904 0.049612 -0.419828
v -0.190321 0.080046 -0.452780
v -0.190321 0.049612 -0.452780
v -0.147059 0.080046 -0.479291
v -0.147059 0.049612 -0.479291
v -0.100182 0.080046 -0.498708
v -0.100182 0.049612 -0.498708
v -0.050845 0.080046 -0.510553
v -0.050845 0.049612 -0.510553
v -0.000263 0.080046 -0.491900
v -0.000263 0.049612 -0.491900
v 0.046780 0.080046 -0.488197
v 0.046780 0.049612 -0.488197
v 0.092663 0.080046 -0.477181
v 0.092663 0.049612 -0.477181
v 0.136259 0.080046 -0.459124
v 0.136259 0.049612 -0.459124
v 0.176492 0.080046 -0.434468
v 0.176492 0.049612 -0.434468
v 0.212374 0.080046 -0.403823
v 0.212374 0.049612 -0.403823
v 0.243019 0.080046 -0.367942
v 0.243019 0.049612 -0.367942
v 0.267675 0.080046 -0.327708
v 0.267675 0.049612 -0.327708
v 0.285732 0.080046 -0.284112
v 0.285732 0.049612 -0.284112
v 0.296748 0.080046 -0.238229
v 0.296748 0.049612 -0.238229
v 0.300450 0.080046 -0.191186
v 0.300450 0.049612 -0.191186
v 0.296748 0.080046 -0.144144
v 0.296748 0.049612 -0.144144
v 0.285732 0.080046 -0.098260
v 0.285732 0.049612 -0.098260
v 0.267675 0.080046 -0.054665
v 0.267675 0.049612 -0.054665
v 0.243019 0.080046 -0.014431
v 0.243019 0.049612 -0.014431
v 0.212374 0.080046 0.021451
v 0.212374 0.049612 0.021451
v 0.176492 0.080046 0.052096
v 0.176492 0.049612 0.052096
v 0.136258 0.080046 0.076752
v 0.136258 0.049612 0.076752
v 0.092663 0.080046 0.094809
v 0.092663 0.049612 0.094809
v 0.046779 0.080046 0.105825
v 0.046779 0.049612 0.105825
v -0.000263 0.080046 0.109528
v -0.000263 0.049612 0.109528
v -0.047306 0.080046 0.105825
v -0.047306 0.049612 0.105825
v -0.093189 0.080046 0.094809
v -0.093189 0.049612 0.094809
v -0.136785 0.080046 0.076751
v -0.136785 0.049612 0.076751
v -0.177019 0.080046 0.052096
v -0.177019 0.049612 0.052096
v -0.212900 0.080046 0.021450
v -0.212900 0.049612 0.021450
v -0.243545 0.080046 -0.014431
v -0.243545 0.049612 -0.014431
v -0.268201 0.080046 -0.054665
v -0.268201 0.049612 -0.054665
v -0.286258 0.080046 -0.098261
v -0.286258 0.049612 -0.098261
v -0.297274 0.080046 -0.144144
v -0.297274 0.049612 -0.144144
v -0.300977 0.080046 -0.191187
v -0.300977 0.049612 -0.191187
v -0.297274 0.080046 -0.238229
v -0.297274 0.049612 -0.238229
v -0.286258 0.080046 -0.284113
v -0.286258 0.049612 -0.284113
v -0.268200 0.080046 -0.327708
v -0.268200 0.049612 -0.327708
v -0.243545 0.080046 -0.367941
v -0.243545 0.049612 -0.367941
v -0.212899 0.080046 -0.403823
v -0.212899 0.049612 -0.403823
v -0.177018 0.080046 -0.434469
v -0.177018 0.049612 -0.434469
v -0.136784 0.080046 -0.459124
v -0.136784 0.049612 -0.459124
v -0.093188 0.080046 -0.477182
v -0.093188 0.049612 -0.477182
v -0.047305 0.080046 -0.488198
v -0.047305 0.049612 -0.488198
vt 1.000000 0.000000
vt 0.975000 0.000000
vt 0.975000 1.000000
vt 1.000000 1.000000
vt 0.950000 0.000000
vt 0.950000 1.000000
vt 0.925000 0.000000
vt 0.925000 1.000000
vt 0.900000 0.000000
vt 0.900000 1.000000
vt 0.875000 0.000000
vt 0.875000 1.000000
vt 0.850000 0.000000
vt 0.850000 1.000000
vt 0.825000 0.000000
vt 0.825000 1.000000
vt 0.800000 0.000000
vt 0.800000 1.000000
vt 0.775000 0.000000
vt 0.775000 1.000000
vt 0.750000 0.000000
vt 0.750000 1.000000
vt 0.725000 0.000000
vt 0.725000 1.000000
vt 0.700000 0.000000
vt 0.700000 1.000000
vt 0.675000 0.000000
vt 0.675000 1.000000
vt 0.650000 0.000000
vt 0.650000 1.000000
vt 0.625000 0.000000
vt 0.625000 1.000000
vt 0.600000 0.000000
vt 0.600000 1.000000
vt 0.575000 0.000000
vt 0.575000 1.000000
vt 0.550000 0.000000
vt 0.550000 1.000000
vt 0.525000 0.000000
vt 0.525000 1.000000
vt 0.500000 0.000000
vt 0.500000 1.000000
vt 0.475000 0.000000
vt 0.475000 1.000000
vt 0.450000 0.000000
vt 0.450000 1.000000
vt 0.425000 0.000000
vt 0.425000 1.000000
vt 0.400000 0.000000
vt 0.400000 1.000000
vt 0.375000 0.000000
vt 0.375000 1.000000
vt 0.350000 0.000000
vt 0.350000 1.000000
vt 0.325000 0.000000
vt 0.325000 1.000000
vt 0.300000 0.000000
vt 0.300000 1.000000
vt 0.275000 0.000000
vt 0.275000 1.000000
vt 0.250000 0.000000
vt 0.250000 1.000000
vt 0.225000 0.000000
vt 0.225000 1.000000
vt 0.200000 0.000000
vt 0.200000 1.000000
vt 0.175000 0.000000
vt 0.175000 1.000000
vt 0.150000 0.000000
vt 0.150000 1.000000
vt 0.125000 0.000000
vt 0.125000 1.000000
vt 0.100000 0.000000
vt 0.100000 1.000000
vt 0.075000 0.000000
vt 0.075000 1.000000
vt 0.050000 0.000000
vt 0.050000 1.000000
vt 0.025000 0.000000
vt 0.025000 1.000000
vt 0.000000 0.000000
vt 0.000000 1.000000
vt 1.000000 0.000000
vt 1.000000 1.000000
vt 0.975000 1.000000
vt 0.975000 0.000000
vt 0.950000 1.000000
vt 0.950000 0.000000
vt 0.925000 1.000000
vt 0.925000 0.000000
vt 0.900000 1.000000
vt 0.900000 0.000000
vt 0.875000 1.000000
vt 0.875000 0.000000
vt 0.850000 1.000000
vt 0.850000 0.000000
vt 0.825000 1.000000
vt 0.825000 0.000000
vt 0.800000 1.000000
vt 0.800000 0.000000
vt 0.775000 1.000000
vt 0.775000 0.000000
vt 0.750000 1.000000
vt 0.750000 0.000000
vt 0.725000 1.000000
vt 0.725000 0.000000
vt 0.700000 1.000000
vt 0.700000 0.000000
vt 0.675000 1.000000
vt 0.675000 0.000000
vt 0.650000 1.000000
vt 0.650000 0.000000
vt 0.625000 1.000000
vt 0.625000 0.000000
vt 0.600000 1.000000
vt 0.600000 0.000000
vt 0.575000 1.000000
vt 0.575000 0.000000
vt 0.550000 1.000000
vt 0.550000 0.000000
vt 0.525000 1.000000
vt 0.525000 0.000000
vt 0.500000 1.000000
vt 0.500000 0.000000
vt 0.475000 1.000000
vt 0.475000 0.000000
vt 0.450000 1.000000
vt 0.450000 0.000000
vt 0.425000 1.000000
vt 0.425000 0.000000
vt 0.400000 1.000000
vt 0.400000 0.000000
vt 0.375000 1.000000
vt 0.375000 0.000000
vt 0.350000 1.000000
vt 0.350000 0.000000
vt 0.325000 1.000000
vt 0.325000 0.000000
vt 0.300000 1.000000
vt 0.300000 0.000000
vt 0.275000 1.000000
vt 0.275000 0.000000
vt 0.250000 1.000000
vt 0.250000 0.000000
vt 0.225000 1.000000
vt 0.225000 0.000000
vt 0.200000 1.000000
vt 0.200000 0.000000
vt 0.175000 1.000000
vt 0.175000 0.000000
vt 0.150000 1.000000
vt 0.150000 0.000000
vt 0.125000 1.000000
vt 0.125000 0.000000
vt 0.100000 1.000000
vt 0.100000 0.000000
vt 0.075000 1.000000
vt 0.075000 0.000000
vt 0.050000 1.000000
vt 0.050000 0.000000
vt 0.025000 1.000000
vt 0.025000 0.000000
vt 0.000000 1.000000
vt 0.000000 0.000000
vn 0.0785 0.0000 -0.9969
vn 0.2334 0.0000 -0.9724
vn 0.3827 0.0000 -0.9239
vn 0.5225 0.0000 -0.8526
vn 0.6494 0.0000 -0.7604
vn 0.7604 0.0000 -0.6494
vn 0.8526 0.0000 -0.5225
vn 0.9239 0.0000 -0.3827
vn 0.9724 0.0000 -0.2334
vn 0.9969 0.0000 -0.0785
vn 0.9969 0.0000 0.0785
vn 0.9724 0.0000 0.2334
vn 0.9239 0.0000 0.3827
vn 0.8526 0.0000 0.5225
vn 0.7604 0.0000 0.6494
vn 0.6494 0.0000 0.7604
vn 0.5225 0.0000 0.8526
vn 0.3827 0.0000 0.9239
vn 0.2334 0.0000 0.9724
vn 0.0785 0.0000 0.9969
vn -0.0785 0.0000 0.9969
vn -0.2334 0.0000 0.9724
vn -0.3827 0.0000 0.9239
vn -0.5225 0.0000 0.8526
vn -0.6494 0.0000 0.7604
vn -0.7604 0.0000 0.6494
vn -0.8526 0.0000 0.5225
vn -0.9239 0.0000 0.3827
vn -0.9724 0.0000 0.2334
vn -0.9969 0.0000 0.0785
vn -0.9969 0.0000 -0.0785
vn -0.9724 0.0000 -0.2334
vn -0.9239 0.0000 -0.3827
vn -0.8526 0.0000 -0.5225
vn -0.7604 0.0000 -0.6494
vn -0.6494 0.0000 -0.7604
vn -0.5225 0.0000 -0.8526
vn -0.3827 0.0000 -0.9239
vn -0.2334 0.0000 -0.9724
vn -0.0785 0.0000 -0.9969
vn -0.2335 0.0000 0.9724
vn -0.9724 0.0000 0.2335
vn -0.9969 0.0000 0.0784
vn -0.9969 0.0000 -0.0784
vn -0.9724 0.0000 -0.2335
vn -0.2335 0.0000 -0.9724
vn 0.2335 0.0000 -0.9724
vn 0.9724 0.0000 0.2335
vn 0.0000 1.0000 -0.0000
vn 0.0000 -1.0000 0.0000
usemtl None
s off
f 1/1/1 3/2/1 4/3/1 2/4/1
f 3/2/2 5/5/2 6/6/2 4/3/2
f 5/5/3 7/7/3 8/8/3 6/6/3
f 7/7/4 9/9/4 10/10/4 8/8/4
f 9/9/5 11/11/5 12/12/5 10/10/5
f 11/11/6 13/13/6 14/14/6 12/12/6
f 13/13/7 15/15/7 16/16/7 14/14/7
f 15/15/8 17/17/8 18/18/8 16/16/8
f 17/17/9 19/19/9 20/20/9 18/18/9
f 19/19/10 21/21/10 22/22/10 20/20/10
f 21/21/11 23/23/11 24/24/11 22/22/11
f 23/23/12 25/25/12 26/26/12 24/24/12
f 25/25/13 27/27/13 28/28/13 26/26/13
f 27/27/14 29/29/14 30/30/14 28/28/14
f 29/29/15 31/31/15 32/32/15 30/30/15
f 31/31/16 33/33/16 34/34/16 32/32/16
f 33/33/17 35/35/17 36/36/17 34/34/17
f 35/35/18 37/37/18 38/38/18 36/36/18
f 37/37/19 39/39/19 40/40/19 38/38/19
f 39/39/20 41/41/20 42/42/20 40/40/20
f 41/41/21 43/43/21 44/44/21 42/42/21
f 43/43/22 45/45/22 46/46/22 44/44/22
f 45/45/23 47/47/23 48/48/23 46/46/23
f 47/47/24 49/49/24 50/50/24 48/48/24
f 49/49/25 51/51/25 52/52/25 50/50/25
f 51/51/26 53/53/26 54/54/26 52/52/26
f 53/53/27 55/55/27 56/56/27 54/54/27
f 55/55/28 57/57/28 58/58/28 56/56/28
f 57/57/29 59/59/29 60/60/29 58/58/29
f 59/59/30 61/61/30 62/62/30 60/60/30
f 61/61/31 63/63/31 64/64/31 62/62/31
f 63/63/32 65/65/32 66/66/32 64/64/32
f 65/65/33 67/67/33 68/68/33 66/66/33
f 67/67/34 69/69/34 70/70/34 68/68/34
f 69/69/35 71/71/35 72/72/35 70/70/35
f 71/71/36 73/73/36 74/74/36 72/72/36
f 73/73/37 75/75/37 76/76/37 74/74/37
f 75/75/38 77/77/38 78/78/38 76/76/38
f 77/77/39 79/79/39 80/80/39 78/78/39
f 79/79/40 1/81/40 2/82/40 80/80/40
f 81/83/21 82/84/21 84/85/21 83/86/21
f 83/86/41 84/85/41 86/87/41 85/88/41
f 85/88/23 86/87/23 88/89/23 87/90/23
f 87/90/24 88/89/24 90/91/24 89/92/24
f 89/92/25 90/91/25 92/93/25 91/94/25
f 91/94/26 92/93/26 94/95/26 93/96/26
f 93/96/27 94/95/27 96/97/27 95/98/27
f 95/98/28 96/97/28 98/99/28 97/100/28
f 97/100/42 98/99/42 100/101/42 99/102/42
f 99/102/43 100/101/43 102/103/43 101/104/43
f 101/104/44 102/103/44 104/105/44 103/106/44
f 103/106/45 104/105/45 106/107/45 105/108/45
f 105/108/33 106/107/33 108/109/33 107/110/33
f 107/110/34 108/109/34 110/111/34 109/112/34
f 109/112/35 110/111/35 112/113/35 111/114/35
f 111/114/36 112/113/36 114/115/36 113/116/36
f 113/116/37 114/115/37 116/117/37 115/118/37
f 115/118/38 116/117/38 118/119/38 117/120/38
f 117/120/46 118/119/46 120/121/46 119/122/46
f 119/122/40 120/121/40 122/123/40 121/124/40
f 121/124/1 122/123/1 124/125/1 123/126/1
f 123/126/47 124/125/47 126/127/47 125/128/47
f 125/128/3 126/127/3 128/129/3 127/130/3
f 127/130/4 128/129/4 130/131/4 129/132/4
f 129/132/5 130/131/5 132/133/5 131/134/5
f 131/134/6 132/133/6 134/135/6 133/136/6
f 133/136/7 134/135/7 136/137/7 135/138/7
f 135/138/8 136/137/8 138/139/8 137/140/8
f 137/140/9 138/139/9 140/141/9 139/142/9
f 139/142/10 140/141/10 142/143/10 141/144/10
f 141/144/11 142/143/11 144/145/11 143/146/11
f 143/146/48 144/145/48 146/147/48 145/148/48
f 145/148/13 146/147/13 148/149/13 147/150/13
f 147/150/14 148/149/14 150/151/14 149/152/14
f 149/152/15 150/151/15 152/153/15 151/154/15
f 151/154/16 152/153/16 154/155/16 153/156/16
f 153/156/17 154/155/17 156/157/17 155/158/17
f 155/158/18 156/157/18 158/159/18 157/160/18
f 157/160/19 158/159/19 160/161/19 159/162/19
f 159/162/20 160/161/20 82/163/20 81/164/20
f 1/1/49 81/83/49 83/86/49 3/2/49
f 4/3/50 84/85/50 82/84/50 2/4/50
f 3/2/49 83/86/49 85/88/49 5/5/49
f 6/6/50 86/87/50 84/85/50 4/3/50
f 5/5/49 85/88/49 87/90/49 7/7/49
f 8/8/50 88/89/50 86/87/50 6/6/50
f 7/7/49 87/90/49 89/92/49 9/9/49
f 10/10/50 90/91/50 88/89/50 8/8/50
f 9/9/49 89/92/49 91/94/49 11/11/49
f 12/12/50 92/93/50 90/91/50 10/10/50
f 11/11/49 91/94/49 93/96/49 13/13/49
f 14/14/50 94/95/50 92/93/50 12/12/50
f 13/13/49 93/96/49 95/98/49 15/15/49
f 16/16/50 96/97/50 94/95/50 14/14/50
f 15/15/49 95/98/49 97/100/49 17/17/49
f 18/18/50 98/99/50 96/97/50 16/16/50
f 17/17/49 97/100/49 99/102/49 19/19/49
f 20/20/50 100/101/50 98/99/50 18/18/50
f 19/19/49 99/102/49 101/104/49 21/21/49
f 22/22/50 102/103/50 100/101/50 20/20/50
f 21/21/49 101/104/49 103/106/49 23/23/49
f 24/24/50 104/105/50 102/103/50 22/22/50
f 23/23/49 103/106/49 105/108/49 25/25/49
f 26/26/50 106/107/50 104/105/50 24/24/50
f 25/25/49 105/108/49 107/110/49 27/27/49
f 28/28/50 108/109/50 106/107/50 26/26/50
f 27/27/49 107/110/49 109/112/49 29/29/49
f 30/30/50 110/111/50 108/109/50 28/28/50
f 29/29/49 109/112/49 111/114/49 31/31/49
f 32/32/50 112/113/50 110/111/50 30/30/50
f 31/31/49 111/114/49 113/116/49 33/33/49
f 34/34/50 114/115/50 112/113/50 32/32/50
f 33/33/49 113/116/49 115/118/49 35/35/49
f 36/36/50 116/117/50 114/115/50 34/34/50
f 35/35/49 115/118/49 117/120/49 37/37/49
f 38/38/50 118/119/50 116/117/50 36/36/50
f 37/37/49 117/120/49 119/122/49 39/39/49
f 40/40/50 120/121/50 118/119/50 38/38/50
f 39/39/49 119/122/49 121/124/49 41/41/49
f 42/42/50 122/123/50 120/121/50 40/40/50
f 41/41/49 121/124/49 123/126/49 43/43/49
f 44/44/50 124/125/50 122/123/50 42/42/50
f 43/43/49 123/126/49 125/128/49 45/45/49
f 46/46/50 126/127/50 124/125/50 44/44/50
f 45/45/49 125/128/49 127/130/49 47/47/49
f 48/48/50 128/129/50 126/127/50 46/46/50
f 47/47/49 127/130/49 129/132/49 49/49/49
f 50/50/50 130/131/50 128/129/50 48/48/50
f 49/49/49 129/132/49 131/134/49 51/51/49
f 52/52/50 132/133/50 130/131/50 50/50/50
f 51/51/49 131/134/49 133/136/49 53/53/49
f 54/54/50 134/135/50 132/133/50 52/52/50
f 53/53/49 133/136/49 135/138/49 55/55/49
f 56/56/50 136/137/50 134/135/50 54/54/50
f 55/55/49 135/138/49 137/140/49 57/57/49
f 58/58/50 138/139/50 136/137/50 56/56/50
f 57/57/49 137/140/49 139/142/49 59/59/49
f 60/60/50 140/141/50 138/139/50 58/58/50
f 59/59/49 139/142/49 141/144/49 61/61/49
f 62/62/50 142/143/50 140/141/50 60/60/50
f 61/61/49 141/144/49 143/146/49 63/63/49
f 64/64/50 144/145/50 142/143/50 62/62/50
f 63/63/49 143/146/49 145/148/49 65/65/49
f 66/66/50 146/147/50 144/145/50 64/64/50
f 65/65/49 145/148/49 147/150/49 67/67/49
f 68/68/50 148/149/50 146/147/50 66/66/50
f 67/67/49 147/150/49 149/152/49 69/69/49
f 70/70/50 150/151/50 148/149/50 68/68/50
f 69/69/49 149/152/49 151/154/49 71/71/49
f 72/72/50 152/153/50 150/151/50 70/70/50
f 71/71/49 151/154/49 153/156/49 73/73/49
f 74/74/50 154/155/50 152/153/50 72/72/50
f 73/73/49 153/156/49 155/158/49 75/75/49
f 76/76/50 156/157/50 154/155/50 74/74/50
f 75/75/49 155/158/49 157/160/49 77/77/49
f 78/78/50 158/159/50 156/157/50 76/76/50
f 77/77/49 157/160/49 159/162/49 79/79/49
f 80/80/50 160/161/50 158/159/50 78/78/50
f 79/79/49 159/162/49 81/164/49 1/81/49
f 2/82/50 82/163/50 160/161/50 80/80/50
