# Blender v2.91.2 OBJ File: 'circle_arena.blend'
# www.blender.org
mtllib circle_arena.mtl
o Cylinder
v 0.0 -0.010034 -3.297908145924428
v 0.0 1.58503 -3.297908145924428
v 0.6433901248822674 -0.010034 -3.2345396203792323
v 0.6433901248822674 1.58503 -3.2345396203792323
v 1.2620554430552435 -0.010034 -3.046869644838305
v 1.2620554430552435 1.58503 -3.046869644838305
v 1.8322202457900216 -0.010034 -2.742110887318293
v 1.8322202457900216 1.58503 -2.742110887318293
v 2.331973655919901 -0.010034 -2.331973060127069
v 2.331973655919901 1.58503 -2.331973060127069
v 2.7421114831111257 -0.010034 -1.8322190542043584
v 2.7421114831111257 1.58503 -1.8322190542043584
v 3.0468702406311365 -0.010034 -1.262054251469581
v 3.0468702406311365 1.58503 -1.262054251469581
v 3.234540216172063 -0.010034 -0.6433895290894357
v 3.234540216172063 1.58503 -0.6433895290894357
v 3.2979087417172614 -0.010034 5.95792831376435e-07
v 3.2979087417172614 1.58503 5.95792831376435e-07
v 3.2345408119648944 -0.010034 0.6433901248822674
v 3.2345408119648944 1.58503 0.6433901248822674
v 3.046870836423969 -0.010034 1.2620554430552435
v 3.046870836423969 1.58503 1.2620554430552435
v 2.7421114831111257 -0.010034 1.8322202457900216
v 2.7421114831111257 1.58503 1.8322202457900216
v 2.331973655919901 -0.010034 2.3319742517127326
v 2.331973655919901 1.58503 2.3319742517127326
v 1.8322202457900216 -0.010034 2.7421114831111257
v 1.8322202457900216 1.58503 2.7421114831111257
v 1.2620548472624127 -0.010034 3.0468714322167987
v 1.2620548472624127 1.58503 3.0468714322167987
v 0.6433895290894357 -0.010034 3.2345408119648944
v 0.6433895290894357 1.58503 3.2345408119648944
v -5.95792831376435e-07 -0.010034 3.2979093375100916
v -5.95792831376435e-07 1.58503 3.2979093375100916
v -0.6433913164679298 -0.010034 3.2345408119648944
v -0.6433913164679298 1.58503 3.2345408119648944
v -1.2620566346409063 -0.010034 3.0468702406311365
v -1.2620566346409063 1.58503 3.0468702406311365
v -1.8322214373756838 -0.010034 2.742110887318293
v -1.8322214373756838 1.58503 2.742110887318293
v -2.3319748475055637 -0.010034 2.331973060127069
v -2.3319748475055637 1.58503 2.331973060127069
v -2.742112078903957 -0.010034 1.832218458411528
v -2.742112078903957 1.58503 1.832218458411528
v -3.046870836423969 -0.010034 1.2620530598839184
v -3.046870836423969 1.58503 1.2620530598839184
v -3.234540216172063 -0.010034 0.6433877417109418
v -3.234540216172063 1.58503 0.6433877417109418
v -3.297908145924428 -0.010034 -2.38317132550574e-06
v -3.297908145924428 1.58503 -2.38317132550574e-06
v -3.2345396203792323 -0.010034 -0.6433931038464241
v -3.2345396203792323 1.58503 -0.6433931038464241
v -3.046869049045474 -0.010034 -1.2620578262265687
v -3.046869049045474 1.58503 -1.2620578262265687
v -2.7421085041469673 -0.010034 -1.8322226289613468
v -2.7421085041469673 1.58503 -1.8322226289613468
v -2.331970081162912 -0.010034 -2.3319760390912263
v -2.331970081162912 1.58503 -2.3319760390912263
v -1.832216075240202 -0.010034 -2.7421126746967874
v -1.832216075240202 1.58503 -2.7421126746967874
v -1.2620506767125927 -0.010034 -3.0468714322167987
v -1.2620506767125927 1.58503 -3.0468714322167987
v -0.6433847627467847 -0.010034 -3.2345408119648944
v -0.6433847627467847 1.58503 -3.2345408119648944
v 0.0 -0.010034 -3.00001173023621
v 0.0 1.58503 -3.00001173023621
v 0.5852782794883038 -0.010034 -2.9423711569718667
v 0.5852782794883038 1.58503 -2.9423711569718667
v 1.148058825871002 -0.010034 -2.7716562538262517
v 1.148058825871002 1.58503 -2.7716562538262517
v 1.6667209130902751 -0.010034 -2.4944255082871565
v 1.6667209130902751 1.58503 -2.4944255082871565
v 2.1213364625222444 -0.010034 -2.121335866729413
v 2.1213364625222444 1.58503 -2.121335866729413
v 2.49442669987282 -0.010034 -1.6667197215046123
v 2.49442669987282 1.58503 -1.6667197215046123
v 2.7716568496190823 -0.010034 -1.1480576342853395
v 2.7716568496190823 1.58503 -1.1480576342853395
v 2.9423717527646978 -0.010034 -0.5852776836954723
v 2.9423717527646978 1.58503 -0.5852776836954723
v 3.0000123260290423 -0.010034 5.95792831376435e-07
v 3.0000123260290423 1.58503 5.95792831376435e-07
v 2.9423717527646978 -0.010034 0.5852782794883038
v 2.9423717527646978 1.58503 0.5852782794883038
v 2.771657445411914 -0.010034 1.148058825871002
v 2.771657445411914 1.58503 1.148058825871002
v 2.49442669987282 -0.010034 1.6667215088831064
v 2.49442669987282 1.58503 1.6667215088831064
v 2.1213364625222444 -0.010034 2.121337058315076
v 2.1213364625222444 1.58503 2.121337058315076
v 1.6667209130902751 -0.010034 2.49442669987282
v 1.6667209130902751 1.58503 2.49442669987282
v 1.1480582300781708 -0.010034 2.7716580412047453
v 1.1480582300781708 1.58503 2.7716580412047453
v 0.5852776836954723 -0.010034 2.94237234855753
v 0.5852776836954723 1.58503 2.94237234855753
v -5.95792831376435e-07 -0.010034 3.000012921821874
v -5.95792831376435e-07 1.58503 3.000012921821874
v -0.5852794710739665 -0.010034 2.9423717527646978
v -0.5852794710739665 1.58503 2.9423717527646978
v -1.1480600174566644 -0.010034 2.7716568496190823
v -1.1480600174566644 1.58503 2.7716568496190823
v -1.6667221046759388 -0.010034 2.4944261040799875
v -1.6667221046759388 1.58503 2.4944261040799875
v -2.121337654107908 -0.010034 2.1213352709365823
v -2.121337654107908 1.58503 2.1213352709365823
v -2.49442729566565 -0.010034 1.6667197215046123
v -2.49442729566565 1.58503 1.6667197215046123
v -2.771657445411914 -0.010034 1.1480564426996767
v -2.771657445411914 1.58503 1.1480564426996767
v -2.9423717527646978 -0.010034 0.5852758963169785
v -2.9423717527646978 1.58503 0.5852758963169785
v -3.0000212629215124 -0.010034 -2.38317132550574e-06
v -3.0000212629215124 1.58503 -2.38317132550574e-06
v -2.9423705611790343 -0.010034 -0.5852812584524608
v -2.9423705611790343 1.58503 -0.5852812584524608
v -2.771655062240589 -0.010034 -1.1480612090423274
v -2.771655062240589 1.58503 -1.1480612090423274
v -2.4944237209086624 -0.010034 -1.6667238920544325
v -2.4944237209086624 1.58503 -1.6667238920544325
v -2.1213328877652557 -0.010034 -2.121338249900739
v -2.1213328877652557 1.58503 -2.121338249900739
v -1.6667167425404557 -0.010034 -2.494427891458481
v -1.6667167425404557 1.58503 -2.494427891458481
v -1.148054059528351 -0.010034 -2.7716580412047453
v -1.148054059528351 1.58503 -2.7716580412047453
v -0.5852729173528214 -0.010034 -2.9423717527646978
v -0.5852729173528214 1.58503 -2.9423717527646978
vt 1.000000 0.000000
vt 1.000000 1.000000
vt 0.968750 1.000000
vt 0.968750 0.000000
vt 0.937500 1.000000
vt 0.937500 0.000000
vt 0.906250 1.000000
vt 0.906250 0.000000
vt 0.875000 1.000000
vt 0.875000 0.000000
vt 0.843750 1.000000
vt 0.843750 0.000000
vt 0.812500 1.000000
vt 0.812500 0.000000
vt 0.781250 1.000000
vt 0.781250 0.000000
vt 0.750000 1.000000
vt 0.750000 0.000000
vt 0.718750 1.000000
vt 0.718750 0.000000
vt 0.687500 1.000000
vt 0.687500 0.000000
vt 0.656250 1.000000
vt 0.656250 0.000000
vt 0.625000 1.000000
vt 0.625000 0.000000
vt 0.593750 1.000000
vt 0.593750 0.000000
vt 0.562500 1.000000
vt 0.562500 0.000000
vt 0.531250 1.000000
vt 0.531250 0.000000
vt 0.500000 1.000000
vt 0.500000 0.000000
vt 0.468750 1.000000
vt 0.468750 0.000000
vt 0.437500 1.000000
vt 0.437500 0.000000
vt 0.406250 1.000000
vt 0.406250 0.000000
vt 0.375000 1.000000
vt 0.375000 0.000000
vt 0.343750 1.000000
vt 0.343750 0.000000
vt 0.312500 1.000000
vt 0.312500 0.000000
vt 0.281250 1.000000
vt 0.281250 0.000000
vt 0.250000 1.000000
vt 0.250000 0.000000
vt 0.218750 1.000000
vt 0.218750 0.000000
vt 0.187500 1.000000
vt 0.187500 0.000000
vt 0.156250 1.000000
vt 0.156250 0.000000
vt 0.125000 1.000000
vt 0.125000 0.000000
vt 0.093750 1.000000
vt 0.093750 0.000000
vt 0.062500 1.000000
vt 0.062500 0.000000
vt 0.031250 1.000000
vt 0.031250 0.000000
vt 0.000000 1.000000
vt 0.000000 0.000000
vt 1.000000 0.000000
vt 0.968750 0.000000
vt 0.968750 1.000000
vt 1.000000 1.000000
vt 0.937500 0.000000
vt 0.937500 1.000000
vt 0.906250 0.000000
vt 0.906250 1.000000
vt 0.875000 0.000000
vt 0.875000 1.000000
vt 0.843750 0.000000
vt 0.843750 1.000000
vt 0.812500 0.000000
vt 0.812500 1.000000
vt 0.781250 0.000000
vt 0.781250 1.000000
vt 0.750000 0.000000
vt 0.750000 1.000000
vt 0.718750 0.000000
vt 0.718750 1.000000
vt 0.687500 0.000000
vt 0.687500 1.000000
vt 0.656250 0.000000
vt 0.656250 1.000000
vt 0.625000 0.000000
vt 0.625000 1.000000
vt 0.593750 0.000000
vt 0.593750 1.000000
vt 0.562500 0.000000
vt 0.562500 1.000000
vt 0.531250 0.000000
vt 0.531250 1.000000
vt 0.500000 0.000000
vt 0.500000 1.000000
vt 0.468750 0.000000
vt 0.468750 1.000000
vt 0.437500 0.000000
vt 0.437500 1.000000
vt 0.406250 0.000000
vt 0.406250 1.000000
vt 0.375000 0.000000
vt 0.375000 1.000000
vt 0.343750 0.000000
vt 0.343750 1.000000
vt 0.312500 0.000000
vt 0.312500 1.000000
vt 0.281250 0.000000
vt 0.281250 1.000000
vt 0.250000 0.000000
vt 0.250000 1.000000
vt 0.218750 0.000000
vt 0.218750 1.000000
vt 0.187500 0.000000
vt 0.187500 1.000000
vt 0.156250 0.000000
vt 0.156250 1.000000
vt 0.125000 0.000000
vt 0.125000 1.000000
vt 0.093750 0.000000
vt 0.093750 1.000000
vt 0.062500 0.000000
vt 0.062500 1.000000
vt 0.031250 0.000000
vt 0.031250 1.000000
vt 0.000000 0.000000
vt 0.000000 1.000000
vn 0.0980 0.0000 -0.9952
vn 0.2903 0.0000 -0.9569
vn 0.4714 0.0000 -0.8819
vn 0.6344 0.0000 -0.7730
vn 0.7730 0.0000 -0.6344
vn 0.8819 0.0000 -0.4714
vn 0.9569 0.0000 -0.2903
vn 0.9952 0.0000 -0.0980
vn 0.9952 0.0000 0.0980
vn 0.9569 0.0000 0.2903
vn 0.8819 0.0000 0.4714
vn 0.7730 0.0000 0.6344
vn 0.6344 0.0000 0.7730
vn 0.4714 0.0000 0.8819
vn 0.2903 0.0000 0.9569
vn 0.0980 0.0000 0.9952
vn -0.0980 0.0000 0.9952
vn -0.2903 0.0000 0.9569
vn -0.4714 0.0000 0.8819
vn -0.6344 0.0000 0.7730
vn -0.7730 0.0000 0.6344
vn -0.8819 0.0000 0.4714
vn -0.9569 0.0000 0.2903
vn -0.9952 0.0000 0.0980
vn -0.9952 0.0000 -0.0980
vn -0.9569 0.0000 -0.2903
vn -0.8819 0.0000 -0.4714
vn -0.7730 0.0000 -0.6344
vn -0.6344 0.0000 -0.7730
vn -0.4714 0.0000 -0.8819
vn -0.2903 0.0000 -0.9569
vn -0.0980 0.0000 -0.9952
vn 0.0000 -1.0000 -0.0000
vn 0.0000 1.0000 -0.0000
usemtl Material.001
s off
f 1/1/1 2/2/1 4/3/1 3/4/1
f 3/4/2 4/3/2 6/5/2 5/6/2
f 5/6/3 6/5/3 8/7/3 7/8/3
f 7/8/4 8/7/4 10/9/4 9/10/4
f 9/10/5 10/9/5 12/11/5 11/12/5
f 11/12/6 12/11/6 14/13/6 13/14/6
f 13/14/7 14/13/7 16/15/7 15/16/7
f 15/16/8 16/15/8 18/17/8 17/18/8
f 17/18/9 18/17/9 20/19/9 19/20/9
f 19/20/10 20/19/10 22/21/10 21/22/10
f 21/22/11 22/21/11 24/23/11 23/24/11
f 23/24/12 24/23/12 26/25/12 25/26/12
f 25/26/13 26/25/13 28/27/13 27/28/13
f 27/28/14 28/27/14 30/29/14 29/30/14
f 29/30/15 30/29/15 32/31/15 31/32/15
f 31/32/16 32/31/16 34/33/16 33/34/16
f 33/34/17 34/33/17 36/35/17 35/36/17
f 35/36/18 36/35/18 38/37/18 37/38/18
f 37/38/19 38/37/19 40/39/19 39/40/19
f 39/40/20 40/39/20 42/41/20 41/42/20
f 41/42/21 42/41/21 44/43/21 43/44/21
f 43/44/22 44/43/22 46/45/22 45/46/22
f 45/46/23 46/45/23 48/47/23 47/48/23
f 47/48/24 48/47/24 50/49/24 49/50/24
f 49/50/25 50/49/25 52/51/25 51/52/25
f 51/52/26 52/51/26 54/53/26 53/54/26
f 53/54/27 54/53/27 56/55/27 55/56/27
f 55/56/28 56/55/28 58/57/28 57/58/28
f 57/58/29 58/57/29 60/59/29 59/60/29
f 59/60/30 60/59/30 62/61/30 61/62/30
f 61/62/31 62/61/31 64/63/31 63/64/31
f 63/64/32 64/63/32 2/65/32 1/66/32
f 65/67/17 67/68/17 68/69/17 66/70/17
f 67/68/18 69/71/18 70/72/18 68/69/18
f 69/71/19 71/73/19 72/74/19 70/72/19
f 71/73/20 73/75/20 74/76/20 72/74/20
f 73/75/21 75/77/21 76/78/21 74/76/21
f 75/77/22 77/79/22 78/80/22 76/78/22
f 77/79/23 79/81/23 80/82/23 78/80/23
f 79/81/24 81/83/24 82/84/24 80/82/24
f 81/83/25 83/85/25 84/86/25 82/84/25
f 83/85/26 85/87/26 86/88/26 84/86/26
f 85/87/27 87/89/27 88/90/27 86/88/27
f 87/89/28 89/91/28 90/92/28 88/90/28
f 89/91/29 91/93/29 92/94/29 90/92/29
f 91/93/30 93/95/30 94/96/30 92/94/30
f 93/95/31 95/97/31 96/98/31 94/96/31
f 95/97/32 97/99/32 98/100/32 96/98/32
f 97/99/1 99/101/1 100/102/1 98/100/1
f 99/101/2 101/103/2 102/104/2 100/102/2
f 101/103/3 103/105/3 104/106/3 102/104/3
f 103/105/4 105/107/4 106/108/4 104/106/4
f 105/107/5 107/109/5 108/110/5 106/108/5
f 107/109/6 109/111/6 110/112/6 108/110/6
f 109/111/7 111/113/7 112/114/7 110/112/7
f 111/113/8 113/115/8 114/116/8 112/114/8
f 113/115/9 115/117/9 116/118/9 114/116/9
f 115/117/10 117/119/10 118/120/10 116/118/10
f 117/119/11 119/121/11 120/122/11 118/120/11
f 119/121/12 121/123/12 122/124/12 120/122/12
f 121/123/13 123/125/13 124/126/13 122/124/13
f 123/125/14 125/127/14 126/128/14 124/126/14
f 125/127/15 127/129/15 128/130/15 126/128/15
f 127/129/16 65/131/16 66/132/16 128/130/16
f 1/1/33 3/4/33 67/68/33 65/67/33
f 4/3/34 2/2/34 66/70/34 68/69/34
f 3/4/33 5/6/33 69/71/33 67/68/33
f 6/5/34 4/3/34 68/69/34 70/72/34
f 5/6/33 7/8/33 71/73/33 69/71/33
f 8/7/34 6/5/34 70/72/34 72/74/34
f 7/8/33 9/10/33 73/75/33 71/73/33
f 10/9/34 8/7/34 72/74/34 74/76/34
f 9/10/33 11/12/33 75/77/33 73/75/33
f 12/11/34 10/9/34 74/76/34 76/78/34
f 11/12/33 13/14/33 77/79/33 75/77/33
f 14/13/34 12/11/34 76/78/34 78/80/34
f 13/14/33 15/16/33 79/81/33 77/79/33
f 16/15/34 14/13/34 78/80/34 80/82/34
f 15/16/33 17/18/33 81/83/33 79/81/33
f 18/17/34 16/15/34 80/82/34 82/84/34
f 17/18/33 19/20/33 83/85/33 81/83/33
f 20/19/34 18/17/34 82/84/34 84/86/34
f 19/20/33 21/22/33 85/87/33 83/85/33
f 22/21/34 20/19/34 84/86/34 86/88/34
f 21/22/33 23/24/33 87/89/33 85/87/33
f 24/23/34 22/21/34 86/88/34 88/90/34
f 23/24/33 25/26/33 89/91/33 87/89/33
f 26/25/34 24/23/34 88/90/34 90/92/34
f 25/26/33 27/28/33 91/93/33 89/91/33
f 28/27/34 26/25/34 90/92/34 92/94/34
f 27/28/33 29/30/33 93/95/33 91/93/33
f 30/29/34 28/27/34 92/94/34 94/96/34
f 29/30/33 31/32/33 95/97/33 93/95/33
f 32/31/34 30/29/34 94/96/34 96/98/34
f 31/32/33 33/34/33 97/99/33 95/97/33
f 34/33/34 32/31/34 96/98/34 98/100/34
f 33/34/33 35/36/33 99/101/33 97/99/33
f 36/35/34 34/33/34 98/100/34 100/102/34
f 35/36/33 37/38/33 101/103/33 99/101/33
f 38/37/34 36/35/34 100/102/34 102/104/34
f 37/38/33 39/40/33 103/105/33 101/103/33
f 40/39/34 38/37/34 102/104/34 104/106/34
f 39/40/33 41/42/33 105/107/33 103/105/33
f 42/41/34 40/39/34 104/106/34 106/108/34
f 41/42/33 43/44/33 107/109/33 105/107/33
f 44/43/34 42/41/34 106/108/34 108/110/34
f 43/44/33 45/46/33 109/111/33 107/109/33
f 46/45/34 44/43/34 108/110/34 110/112/34
f 45/46/33 47/48/33 111/113/33 109/111/33
f 48/47/34 46/45/34 110/112/34 112/114/34
f 47/48/33 49/50/33 113/115/33 111/113/33
f 50/49/34 48/47/34 112/114/34 114/116/34
f 49/50/33 51/52/33 115/117/33 113/115/33
f 52/51/34 50/49/34 114/116/34 116/118/34
f 51/52/33 53/54/33 117/119/33 115/117/33
f 54/53/34 52/51/34 116/118/34 118/120/34
f 53/54/33 55/56/33 119/121/33 117/119/33
f 56/55/34 54/53/34 118/120/34 120/122/34
f 55/56/33 57/58/33 121/123/33 119/121/33
f 58/57/34 56/55/34 120/122/34 122/124/34
f 57/58/33 59/60/33 123/125/33 121/123/33
f 60/59/34 58/57/34 122/124/34 124/126/34
f 59/60/33 61/62/33 125/127/33 123/125/33
f 62/61/34 60/59/34 124/126/34 126/128/34
f 61/62/33 63/64/33 127/129/33 125/127/33
f 64/63/34 62/61/34 126/128/34 128/130/34
f 63/64/33 1/66/33 65/131/33 127/129/33
f 2/65/34 64/63/34 128/130/34 66/132/34