# Blender v2.91.2 OBJ File: 'simple_map_1.blend'
# www.blender.org
mtllib simple_map_1.mtl
o Cube
v 4.434171 0.778378 -4.555395
v 4.434171 0.006339 -4.555395
v 4.434171 0.778378 4.461617
v 4.434171 0.006339 4.461617
v -4.582841 0.778378 -4.555395
v -4.582841 0.006339 -4.555395
v -4.582841 0.778378 4.461617
v -4.582841 0.006339 4.461617
v -4.114086 0.006339 -4.555395
v -4.114086 0.778378 4.461617
v -4.114086 0.006339 4.461617
v -4.114086 0.778378 -4.555395
v -4.582841 0.006339 -4.000316
v 4.434171 0.778378 -4.000316
v -4.582841 0.778378 -4.000316
v 4.434171 0.006339 -4.000316
v -4.114086 0.006339 -4.000316
v -4.114086 0.778378 -4.000316
v 3.928357 0.006339 4.461617
v 3.928357 0.778378 -4.555395
v 3.928357 0.006339 -4.555395
v 3.928357 0.778378 4.461617
v 3.928357 0.778378 -4.000316
v 3.928357 0.006339 -4.000316
v -4.582841 0.006339 3.938963
v 4.434171 0.778378 3.938963
v -4.114086 0.006339 3.938963
v -4.114086 0.778378 3.938963
v -4.582841 0.778378 3.938963
v 4.434171 0.006339 3.938963
v 3.928357 0.778378 3.938963
v 3.928357 0.006339 3.938963
v 2.016901 0.780294 -1.009792
v 2.016901 0.019181 -1.009792
v 2.016901 0.780294 0.990208
v 2.016901 0.019181 0.990208
v 1.830275 0.780294 -1.009792
v 1.830275 0.019181 -1.009792
v 1.830275 0.780294 0.990208
v 1.830275 0.019181 0.990208
v -1.989972 0.019181 0.990208
v -1.989972 0.780294 0.990208
v -1.989972 0.019181 -1.009792
v -1.989972 0.780294 -1.009792
v -1.803345 0.019181 0.990208
v -1.803345 0.780294 0.990208
v -1.803345 0.019181 -1.009792
v -1.803345 0.780294 -1.009792
v 0.995104 0.780294 -2.863963
v 0.995104 0.019181 -2.863963
v -1.004896 0.780294 -2.863963
v -1.004896 0.019181 -2.863963
v 0.995104 0.780294 -3.050590
v 0.995104 0.019181 -3.050590
v -1.004896 0.780294 -3.050590
v -1.004896 0.019181 -3.050590
v 0.995104 0.780294 2.972252
v 0.995104 0.019181 2.972252
v -1.004896 0.780294 2.972252
v -1.004896 0.019181 2.972252
v 0.995104 0.780294 2.785626
v 0.995104 0.019181 2.785626
v -1.004896 0.780294 2.785626
v -1.004896 0.019181 2.785626
v 0.995104 0.780294 -2.863963
v 0.995104 0.019181 -2.863963
v -1.004896 0.780294 -2.863963
v -1.004896 0.019181 -2.863963
v 0.995104 0.780294 -3.050590
v 0.995104 0.019181 -3.050590
v -1.004896 0.780294 -3.050590
v -1.004896 0.019181 -3.050590
v -0.377911 0.007379 0.733995
v 0.377911 0.007379 0.733995
v -0.377911 0.007379 0.733995
v 0.649481 0.007379 0.377911
v 0.649481 0.007379 -0.377911
v -0.377911 0.007379 -0.618950
v 0.377911 0.007379 -0.618950
v -0.377911 0.007379 -0.618950
v -0.624888 0.007379 -0.377911
v -0.624888 0.007379 0.377911
v -0.377911 0.007379 0.377911
v -0.377911 0.007379 -0.377911
v 0.377911 0.007379 -0.377911
v -0.377911 0.007379 -0.377911
v 0.377911 0.007379 0.377911
v -0.377911 0.007379 0.377911
v -0.377911 0.007379 0.377911
v -0.377911 0.007379 -0.377911
v 0.377911 0.209063 -0.377911
v 0.377911 0.209063 0.377911
v -0.377911 0.209063 0.377911
v -0.377911 0.209063 -0.377911
v -0.092560 0.011288 0.092560
v -0.092560 0.646607 0.092560
v -0.092560 0.011288 -0.092560
v -0.092560 0.646607 -0.092560
v 0.092560 0.011288 0.092560
v 0.092560 0.646607 0.092560
v 0.092560 0.011288 -0.092560
v 0.092560 0.646607 -0.092560
vt 0.839035 0.714984
vt 0.875000 0.714984
vt 0.875000 0.750000
vt 0.839035 0.750000
vt 0.375000 0.964035
vt 0.625000 0.964035
vt 0.625000 1.000000
vt 0.375000 1.000000
vt 0.375000 0.213596
vt 0.625000 0.213596
vt 0.625000 0.250000
vt 0.375000 0.250000
vt 0.339474 0.714984
vt 0.375000 0.714984
vt 0.375000 0.750000
vt 0.339474 0.750000
vt 0.625000 0.714984
vt 0.625000 0.750000
vt 0.375000 0.464474
vt 0.625000 0.464474
vt 0.625000 0.500000
vt 0.375000 0.500000
vt 0.625000 0.285965
vt 0.375000 0.285965
vt 0.125000 0.714984
vt 0.160965 0.714984
vt 0.160965 0.750000
vt 0.125000 0.750000
vt 0.375000 0.785526
vt 0.625000 0.785526
vt 0.660526 0.714984
vt 0.660526 0.750000
vt 0.660526 0.500000
vt 0.839035 0.500000
vt 0.839035 0.536404
vt 0.660526 0.536404
vt 0.125000 0.500000
vt 0.160965 0.500000
vt 0.160965 0.536404
vt 0.125000 0.536404
vt 0.625000 0.536404
vt 0.375000 0.536404
vt 0.339474 0.500000
vt 0.339474 0.536404
vt 0.375000 0.035016
vt 0.625000 0.035016
vt 0.875000 0.500000
vt 0.875000 0.536404
vt 0.375000 0.000000
vt 0.625000 0.000000
vt 0.625000 0.500000
vt 0.875000 0.500000
vt 0.875000 0.750000
vt 0.625000 0.750000
vt 0.125000 0.500000
vt 0.375000 0.500000
vt 0.375000 0.750000
vt 0.125000 0.750000
vt 0.625000 1.000000
vt 0.375000 1.000000
vt 0.375000 0.250000
vt 0.625000 0.250000
vt 0.375000 0.000000
vt 0.625000 0.000000
vt 0.375000 0.000000
vt 0.625000 0.000000
vt 0.625000 0.250000
vt 0.375000 0.250000
vt 0.625000 0.500000
vt 0.375000 0.500000
vt 0.625000 0.750000
vt 0.375000 0.750000
vt 0.625000 1.000000
vt 0.375000 1.000000
vt 0.125000 0.500000
vt 0.125000 0.750000
vt 0.875000 0.500000
vt 0.875000 0.750000
vt 0.625000 0.500000
vt 0.875000 0.500000
vt 0.875000 0.750000
vt 0.625000 0.750000
vt 0.125000 0.500000
vt 0.375000 0.500000
vt 0.375000 0.750000
vt 0.125000 0.750000
vt 0.625000 1.000000
vt 0.375000 1.000000
vt 0.375000 0.250000
vt 0.625000 0.250000
vt 0.375000 0.000000
vt 0.625000 0.000000
vt 0.625000 0.500000
vt 0.875000 0.500000
vt 0.875000 0.750000
vt 0.625000 0.750000
vt 0.125000 0.500000
vt 0.375000 0.500000
vt 0.375000 0.750000
vt 0.125000 0.750000
vt 0.625000 1.000000
vt 0.375000 1.000000
vt 0.375000 0.250000
vt 0.625000 0.250000
vt 0.375000 0.000000
vt 0.625000 0.000000
vt 0.625000 0.500000
vt 0.875000 0.500000
vt 0.875000 0.750000
vt 0.625000 0.750000
vt 0.125000 0.500000
vt 0.375000 0.500000
vt 0.375000 0.750000
vt 0.125000 0.750000
vt 0.625000 1.000000
vt 0.375000 1.000000
vt 0.375000 0.250000
vt 0.625000 0.250000
vt 0.375000 0.000000
vt 0.625000 0.000000
vt 0.000000 1.000000
vt 0.000000 0.000000
vt 0.000000 0.000000
vt 0.000000 1.000000
vt 0.000000 0.000000
vt 0.000000 0.000000
vt 0.000000 0.000000
vt 1.000000 0.000000
vt 1.000000 0.000000
vt 0.000000 1.000000
vt 0.000000 1.000000
vt 0.000000 1.000000
vt 0.000000 1.000000
vt 0.000000 0.000000
vt 1.000000 1.000000
vt 1.000000 0.000000
vt 1.000000 1.000000
vt 1.000000 1.000000
vt 1.000000 0.000000
vt 1.000000 1.000000
vt 0.000000 0.000000
vt 0.000000 1.000000
vt 0.000000 0.000000
vt 0.000000 0.000000
vt 0.000000 0.000000
vt 0.000000 0.000000
vt 0.000000 0.000000
vt 0.000000 0.000000
vt 0.000000 0.000000
vt 0.000000 0.000000
vt 0.000000 0.000000
vt 0.375000 0.000000
vt 0.625000 0.000000
vt 0.625000 0.250000
vt 0.375000 0.250000
vt 0.625000 0.500000
vt 0.375000 0.500000
vt 0.625000 0.750000
vt 0.375000 0.750000
vt 0.625000 1.000000
vt 0.375000 1.000000
vt 0.125000 0.500000
vt 0.125000 0.750000
vt 0.875000 0.500000
vt 0.875000 0.750000
vt 0.000000 0.000000
vt 0.000000 0.000000
vn 0.0000 1.0000 0.0000
vn 0.0000 0.0000 1.0000
vn -1.0000 0.0000 0.0000
vn 0.0000 -1.0000 0.0000
vn 1.0000 0.0000 0.0000
vn 0.0000 0.0000 -1.0000
vn 0.0000 0.8701 0.4928
vn -0.6325 0.7746 0.0000
vn 0.0000 0.7669 -0.6417
vn 0.5962 0.8028 0.0000
vn 0.5427 0.7308 0.4139
vn -0.5792 0.7093 0.4017
vn -0.5308 0.6500 -0.5439
vn 0.4949 0.6664 -0.5576
usemtl Material
s off
f 28/1/1 29/2/1 7/3/1 10/4/1
f 11/5/2 10/6/2 7/7/2 8/8/2
f 13/9/3 15/10/3 5/11/3 6/12/3
f 32/13/4 30/14/4 4/15/4 19/16/4
f 30/14/5 26/17/5 3/18/5 4/15/5
f 21/19/6 20/20/6 1/21/6 2/22/6
f 6/12/6 5/11/6 12/23/6 9/24/6
f 25/25/4 27/26/4 11/27/4 8/28/4
f 19/29/2 22/30/2 10/6/2 11/5/2
f 31/31/1 28/1/1 10/4/1 22/32/1
f 20/33/1 12/34/1 18/35/1 23/36/1
f 6/37/4 9/38/4 17/39/4 13/40/4
f 2/22/5 1/21/5 14/41/5 16/42/5
f 21/43/4 2/22/4 16/42/4 24/44/4
f 25/45/3 29/46/3 15/10/3 13/9/3
f 12/34/1 5/47/1 15/48/1 18/35/1
f 9/38/4 21/43/4 24/44/4 17/39/4
f 1/21/1 20/33/1 23/36/1 14/41/1
f 26/17/1 31/31/1 22/32/1 3/18/1
f 4/15/2 3/18/2 22/30/2 19/29/2
f 9/24/6 12/23/6 20/20/6 21/19/6
f 27/26/4 32/13/4 19/16/4 11/27/4
f 27/26/5 17/39/5 18/35/5 28/1/5
f 14/41/1 23/36/1 31/31/1 26/17/1
f 8/49/3 7/50/3 29/46/3 25/45/3
f 32/13/6 27/26/6 28/1/6 31/31/6
f 13/40/4 17/39/4 27/26/4 25/25/4
f 16/42/5 14/41/5 26/17/5 30/14/5
f 24/44/4 16/42/4 30/14/4 32/13/4
f 18/35/1 15/48/1 29/2/1 28/1/1
f 31/31/3 23/36/3 24/44/3 32/13/3
f 24/44/2 23/36/2 18/35/2 17/39/2
f 33/51/1 37/52/1 39/53/1 35/54/1
f 38/55/4 34/56/4 36/57/4 40/58/4
f 36/57/2 35/54/2 39/59/2 40/60/2
f 34/56/5 33/51/5 35/54/5 36/57/5
f 38/61/6 37/62/6 33/51/6 34/56/6
f 40/63/3 39/64/3 37/62/3 38/61/3
f 41/65/3 42/66/3 44/67/3 43/68/3
f 43/68/6 44/67/6 48/69/6 47/70/6
f 47/70/5 48/69/5 46/71/5 45/72/5
f 45/72/2 46/71/2 42/73/2 41/74/2
f 43/75/4 47/70/4 45/72/4 41/76/4
f 48/69/1 44/77/1 42/78/1 46/71/1
f 49/79/1 53/80/1 55/81/1 51/82/1
f 54/83/4 50/84/4 52/85/4 56/86/4
f 52/85/3 51/82/3 55/87/3 56/88/3
f 50/84/2 49/79/2 51/82/2 52/85/2
f 54/89/5 53/90/5 49/79/5 50/84/5
f 56/91/6 55/92/6 53/90/6 54/89/6
f 57/93/1 61/94/1 63/95/1 59/96/1
f 62/97/4 58/98/4 60/99/4 64/100/4
f 60/99/3 59/96/3 63/101/3 64/102/3
f 58/98/2 57/93/2 59/96/2 60/99/2
f 62/103/5 61/104/5 57/93/5 58/98/5
f 64/105/6 63/106/6 61/104/6 62/103/6
f 65/107/1 69/108/1 71/109/1 67/110/1
f 70/111/4 66/112/4 68/113/4 72/114/4
f 68/113/3 67/110/3 71/115/3 72/116/3
f 66/112/2 65/107/2 67/110/2 68/113/2
f 70/117/5 69/118/5 65/107/5 66/112/5
f 72/119/6 71/120/6 69/118/6 70/117/6
f 84/121/2 83/122/2 89/123/2 90/124/2
f 88/125/2 83/122/2 75/126/2 73/127/2
f 87/128/1 88/125/1 73/127/1 74/129/1
f 84/121/2 86/130/2 78/131/2 80/132/2
f 83/122/1 84/121/1 81/133/1 82/134/1
f 88/125/2 86/130/2 84/121/2 83/122/2
f 85/135/1 87/128/1 76/136/1 77/137/1
f 86/130/1 85/135/1 79/138/1 78/131/1
f 88/125/1 87/128/1 85/135/1 86/130/1
f 85/135/3 87/128/3 92/139/3 91/140/3
f 90/124/3 89/123/3 93/141/3 94/142/3
f 92/139/6 87/128/6 89/123/6 93/141/6
f 85/135/2 91/140/2 94/142/2 90/124/2
f 94/142/1 93/141/1 92/139/1 91/140/1
f 75/126/3 93/141/3 89/123/3
f 92/139/5 74/129/5 87/128/5
f 74/143/7 92/144/7 93/141/7 75/126/7
f 82/134/2 89/123/2 93/141/2
f 81/145/2 90/124/2 94/142/2
f 94/146/8 81/145/8 82/134/8 93/141/8
f 90/124/5 80/147/5 94/142/5
f 85/135/5 79/138/5 91/140/5
f 91/148/9 79/149/9 80/147/9 94/146/9
f 85/135/2 77/137/2 91/140/2
f 87/128/2 76/136/2 92/139/2
f 92/144/10 76/150/10 77/151/10 91/148/10
f 74/129/11 76/136/11 92/139/11
f 75/126/12 93/141/12 82/134/12
f 81/145/13 94/142/13 80/147/13
f 91/140/14 77/137/14 79/138/14
f 95/152/3 96/153/3 98/154/3 97/155/3
f 97/155/6 98/154/6 102/156/6 101/157/6
f 101/157/5 102/156/5 100/158/5 99/159/5
f 99/159/2 100/158/2 96/160/2 95/161/2
f 97/162/4 101/157/4 99/159/4 95/163/4
f 102/156/1 98/164/1 96/165/1 100/158/1
f 89/123/1 82/134/1 75/126/1
f 87/166/1 74/143/1 76/150/1
f 81/145/4 80/147/4 90/124/4
f 79/149/4 77/151/4 85/167/4
