# Blender v2.91.2 OBJ File: 'corridor.blend'
# www.blender.org
mtllib corridor.mtl
o Cube
v -0.141615 0.001080 1.204402
v -0.141615 0.067884 1.204402
v -0.141615 0.001080 -1.204402
v -0.141615 0.067884 -1.204402
v -0.102058 0.001080 1.204402
v -0.102058 0.067884 1.204402
v -0.102058 0.001080 -1.204402
v -0.102058 0.067884 -1.204402
v -0.102058 0.067884 -1.162102
v -0.141615 0.001080 -1.162102
v -0.102058 0.001080 -1.162102
v -0.141615 0.067884 -1.162102
v -0.102058 0.067884 -1.162102
v -0.102058 0.067884 -1.204402
v -0.102058 0.001080 -1.204402
v -0.102058 0.001080 -1.162102
v -0.102058 0.067884 -1.162102
v -0.102058 0.067884 -1.204402
v -0.102058 0.001080 -1.204402
v -0.102058 0.001080 -1.162102
v 0.138666 0.067884 -1.162102
v 0.138666 0.067884 -1.204402
v 0.138666 0.001080 -1.204402
v 0.138666 0.001080 -1.162102
v 0.100717 0.001080 -1.162102
v 0.100717 0.001080 -1.204402
v 0.100717 0.067884 -1.204402
v 0.100717 0.067884 -1.162102
v 0.138666 0.001080 -1.162102
v 0.138666 0.067884 -1.162102
v 0.100717 0.001080 -1.162102
v 0.100717 0.067884 -1.162102
v 0.138666 0.001080 -1.162102
v 0.138666 0.067884 -1.162102
v 0.100717 0.001080 -1.162102
v 0.100717 0.067884 -1.162102
v 0.138666 0.001080 -0.100274
v 0.138666 0.067884 -0.100274
v 0.100717 0.001080 -0.100274
v 0.100717 0.067884 -0.100274
v 0.100717 0.067884 -0.168122
v 0.100717 0.001080 -0.168122
v 0.138666 0.001080 -0.168122
v 0.138666 0.067884 -0.168122
v 0.369250 0.001080 -0.100274
v 0.369250 0.067884 -0.100274
v 0.369250 0.067884 -0.168122
v 0.369250 0.001080 -0.168122
v 0.300075 0.001080 -0.100274
v 0.300075 0.001080 -0.168122
v 0.300075 0.067884 -0.100274
v 0.300075 0.067884 -0.168122
v 0.300075 0.001080 -0.100274
v 0.300075 0.001080 -0.168122
v 0.300075 0.067884 -0.100274
v 0.300075 0.067884 -0.168122
v 0.369250 0.001080 -0.100274
v 0.369250 0.067884 -0.100274
v 0.300075 0.001080 -0.100274
v 0.300075 0.067884 -0.100274
v 0.369250 0.001080 0.167318
v 0.369250 0.067884 0.167318
v 0.300075 0.001080 0.167318
v 0.300075 0.067884 0.167318
v 0.300075 0.067884 0.096150
v 0.300075 0.001080 0.096150
v 0.369250 0.001080 0.096150
v 0.369250 0.067884 0.096150
v 0.300075 0.067884 0.167318
v 0.300075 0.001080 0.167318
v 0.300075 0.067884 0.096150
v 0.300075 0.001080 0.096150
v 0.103651 0.067884 0.167318
v 0.103651 0.001080 0.167318
v 0.103651 0.067884 0.096150
v 0.103651 0.001080 0.096150
v 0.145443 0.067884 0.167318
v 0.145443 0.067884 0.096150
v 0.145443 0.001080 0.096150
v 0.145443 0.001080 0.167318
v 0.103651 0.067884 1.200679
v 0.103651 0.001080 1.200679
v 0.145443 0.067884 1.200679
v 0.145443 0.001080 1.200679
v 0.145443 0.067884 1.141062
v 0.103651 0.067884 1.141062
v 0.145443 0.001080 1.141062
v 0.103651 0.001080 1.141062
v -0.092773 0.067884 1.200679
v -0.092773 0.001080 1.200679
v -0.092773 0.067884 1.141062
v -0.092773 0.001080 1.141062
v -0.101308 0.067884 1.200679
v -0.101308 0.001080 1.200679
v -0.101308 0.067884 1.141062
v -0.101308 0.001080 1.141062
vt 0.625000 0.745610
vt 0.625000 0.750000
vt 0.875000 0.750000
vt 0.875000 0.745610
vt 0.375000 0.750000
vt 0.375000 1.000000
vt 0.625000 1.000000
vt 0.375000 0.004390
vt 0.375000 0.250000
vt 0.625000 0.250000
vt 0.625000 0.004390
vt 0.125000 0.745610
vt 0.125000 0.750000
vt 0.375000 0.745610
vt 0.375000 0.500000
vt 0.625000 0.500000
vt 0.125000 0.500000
vt 0.125000 0.745610
vt 0.125000 0.750000
vt 0.875000 0.500000
vt 0.625000 0.004390
vt 0.625000 0.004390
vt 0.375000 0.004390
vt 0.375000 0.004390
vt 0.375000 1.000000
vt 0.625000 1.000000
vt 0.875000 0.750000
vt 0.875000 0.745610
vt 0.875000 0.750000
vt 0.875000 0.750000
vt 0.875000 0.745610
vt 0.875000 0.745610
vt 0.375000 1.000000
vt 0.625000 1.000000
vt 0.875000 0.750000
vt 0.875000 0.745610
vt 0.125000 0.745610
vt 0.125000 0.750000
vt 0.375000 0.000000
vt 0.375000 0.004390
vt 0.625000 0.004390
vt 0.625000 0.000000
vt 0.125000 0.745610
vt 0.125000 0.745610
vt 0.125000 0.750000
vt 0.125000 0.750000
vt 0.375000 0.004390
vt 0.625000 0.004390
vt 0.375000 1.000000
vt 0.375000 1.000000
vt 0.625000 1.000000
vt 0.625000 1.000000
vt 0.625000 0.004390
vt 0.375000 0.004390
vt 0.125000 0.745610
vt 0.125000 0.745610
vt 0.125000 0.745610
vt 0.125000 0.745610
vt 0.875000 0.745610
vt 0.875000 0.745610
vt 0.625000 0.004390
vt 0.375000 0.004390
vt 0.625000 0.004390
vt 0.625000 0.004390
vt 0.375000 0.004390
vt 0.375000 0.004390
vt 0.375000 0.004390
vt 0.625000 0.004390
vt 0.625000 0.004390
vt 0.375000 0.004390
vt 0.875000 0.745610
vt 0.875000 0.745610
vt 0.625000 0.004390
vt 0.375000 0.004390
vt 0.875000 0.745610
vt 0.875000 0.745610
vt 0.875000 0.745610
vt 0.875000 0.745610
vt 0.125000 0.745610
vt 0.125000 0.745610
vt 0.125000 0.745610
vt 0.125000 0.745610
vt 0.875000 0.745610
vt 0.875000 0.745610
vt 0.875000 0.745610
vt 0.875000 0.745610
vt 0.375000 0.004390
vt 0.625000 0.004390
vt 0.375000 0.004390
vt 0.375000 0.004390
vt 0.625000 0.004390
vt 0.625000 0.004390
vt 0.625000 0.004390
vt 0.625000 0.004390
vt 0.375000 0.004390
vt 0.375000 0.004390
vt 0.125000 0.745610
vt 0.125000 0.745610
vt 0.125000 0.745610
vt 0.125000 0.745610
vt 0.375000 0.004390
vt 0.625000 0.004390
vt 0.625000 0.004390
vt 0.375000 0.004390
vt 0.375000 0.004390
vt 0.625000 0.004390
vt 0.875000 0.745610
vt 0.875000 0.745610
vt 0.125000 0.745610
vt 0.125000 0.745610
vt 0.125000 0.745610
vt 0.125000 0.745610
vt 0.125000 0.745610
vt 0.125000 0.745610
vt 0.125000 0.745610
vt 0.125000 0.745610
vt 0.875000 0.745610
vt 0.875000 0.745610
vt 0.375000 0.004390
vt 0.625000 0.004390
vt 0.625000 0.004390
vt 0.625000 0.004390
vt 0.375000 0.004390
vt 0.375000 0.004390
vt 0.875000 0.745610
vt 0.875000 0.745610
vt 0.875000 0.745610
vt 0.875000 0.745610
vt 0.125000 0.745610
vt 0.125000 0.745610
vt 0.375000 0.004390
vt 0.625000 0.004390
vt 0.625000 0.004390
vt 0.375000 0.004390
vt 0.125000 0.745610
vt 0.125000 0.745610
vt 0.125000 0.745610
vt 0.125000 0.745610
vt 0.625000 0.004390
vt 0.375000 0.004390
vt 0.875000 0.745610
vt 0.875000 0.745610
vt 0.375000 0.004390
vt 0.625000 0.004390
vt 0.625000 0.004390
vt 0.625000 0.004390
vt 0.375000 0.004390
vt 0.375000 0.004390
vt 0.875000 0.745610
vt 0.875000 0.745610
vt 0.875000 0.745610
vt 0.875000 0.745610
vt 0.125000 0.745610
vt 0.125000 0.745610
vt 0.125000 0.745610
vt 0.125000 0.745610
vt 0.625000 0.004390
vt 0.375000 0.004390
vt 0.375000 0.004390
vt 0.625000 0.004390
vt 0.375000 0.004390
vt 0.375000 0.004390
vt 0.625000 0.004390
vt 0.625000 0.004390
vt 0.375000 0.004390
vt 0.625000 0.004390
vt 0.375000 0.004390
vt 0.625000 0.004390
vt 0.875000 0.745610
vt 0.875000 0.745610
vt 0.875000 0.745610
vt 0.875000 0.745610
vt 0.625000 0.004390
vt 0.375000 0.004390
vt 0.875000 0.745610
vt 0.875000 0.745610
vt 0.875000 0.745610
vt 0.875000 0.745610
vt 0.125000 0.745610
vt 0.125000 0.745610
vt 0.625000 0.004390
vt 0.375000 0.004390
vt 0.625000 0.004390
vt 0.625000 0.004390
vt 0.375000 0.004390
vt 0.375000 0.004390
vt 0.125000 0.745610
vt 0.125000 0.745610
vn 0.0000 -1.0000 0.0000
vn 0.0000 0.0000 -1.0000
vn 1.0000 0.0000 0.0000
vn 0.0000 1.0000 0.0000
vn -1.0000 0.0000 0.0000
vn 0.0000 0.0000 1.0000
usemtl Material
s off
f 10/1/1 3/2/1 7/3/1 11/4/1
f 4/5/2 8/6/2 7/7/2 3/2/2
f 9/8/3 6/9/3 5/10/3 11/11/3
f 9/12/4 8/13/4 4/5/4 12/14/4
f 12/14/5 4/5/5 3/2/5 10/1/5
f 6/9/6 2/15/6 1/16/6 5/10/6
f 2/15/5 12/14/5 10/1/5 1/16/5
f 6/17/4 9/12/4 12/14/4 2/15/4
f 9/12/6 13/18/6 14/19/6 8/13/6
f 1/16/1 10/1/1 11/4/1 5/20/1
f 16/21/6 20/22/6 17/23/6 13/24/6
f 11/11/6 16/21/6 13/24/6 9/8/6
f 8/6/6 14/25/6 15/26/6 7/7/6
f 7/3/6 15/27/6 16/28/6 11/4/6
f 26/29/1 23/30/1 24/31/1 25/32/1
f 14/25/6 18/33/6 19/34/6 15/26/6
f 15/27/6 19/35/6 20/36/6 16/28/6
f 13/18/6 17/37/6 18/38/6 14/19/6
f 22/39/3 21/40/3 24/41/3 23/42/3
f 28/43/4 21/44/4 22/45/4 27/46/4
f 21/40/6 30/47/6 29/48/6 24/41/6
f 27/49/2 22/50/2 23/51/2 26/52/2
f 18/33/2 27/49/2 26/52/2 19/34/2
f 20/22/6 25/53/6 28/54/6 17/23/6
f 17/37/4 28/43/4 27/46/4 18/38/4
f 19/35/1 26/29/1 25/32/1 20/36/1
f 32/55/6 36/56/6 34/57/6 30/58/6
f 24/31/6 29/59/6 31/60/6 25/32/6
f 25/53/6 31/61/6 32/62/6 28/54/6
f 28/43/6 32/55/6 30/58/6 21/44/6
f 42/63/5 39/64/5 40/65/5 41/66/5
f 30/47/6 34/67/6 33/68/6 29/48/6
f 31/61/6 35/69/6 36/70/6 32/62/6
f 29/59/6 33/71/6 35/72/6 31/60/6
f 39/64/6 37/73/6 38/74/6 40/65/6
f 43/75/1 37/76/1 39/77/1 42/78/1
f 41/79/4 40/80/4 38/81/4 44/82/4
f 50/83/1 48/84/1 45/85/1 49/86/1
f 34/67/3 44/87/3 43/88/3 33/68/3
f 36/56/4 41/79/4 44/82/4 34/57/4
f 33/71/1 43/75/1 42/78/1 35/72/1
f 35/69/5 42/63/5 41/66/5 36/70/5
f 47/89/3 46/90/3 45/91/3 48/92/3
f 49/93/6 59/94/6 60/95/6 51/96/6
f 51/97/4 46/98/4 47/99/4 52/100/4
f 52/101/2 47/89/2 48/92/2 50/102/2
f 44/87/2 52/101/2 50/102/2 43/88/2
f 38/81/4 51/97/4 52/100/4 44/82/4
f 37/73/6 49/93/6 51/96/6 38/74/6
f 43/75/1 50/83/1 49/86/1 37/76/1
f 49/93/6 53/103/6 55/104/6 51/96/6
f 52/101/6 56/105/6 54/106/6 50/102/6
f 50/83/6 54/107/6 53/108/6 49/86/6
f 51/97/6 55/109/6 56/110/6 52/100/6
f 65/111/6 71/112/6 69/113/6 64/114/6
f 51/97/6 60/115/6 58/116/6 46/98/6
f 45/85/6 57/117/6 59/118/6 49/86/6
f 46/90/6 58/119/6 57/120/6 45/91/6
f 63/121/6 61/122/6 62/123/6 64/124/6
f 67/125/1 61/126/1 63/127/1 66/128/1
f 65/111/4 64/114/4 62/129/4 68/130/4
f 68/131/3 62/123/3 61/122/3 67/132/3
f 58/119/3 68/131/3 67/132/3 57/120/3
f 60/115/4 65/111/4 68/130/4 58/116/4
f 57/117/1 67/125/1 66/128/1 59/118/1
f 59/94/5 66/133/5 65/134/5 60/95/5
f 78/135/4 75/136/4 73/137/4 77/138/4
f 66/133/6 72/139/6 71/140/6 65/134/6
f 63/127/6 70/141/6 72/142/6 66/128/6
f 64/124/6 69/143/6 70/144/6 63/121/6
f 76/145/5 74/146/5 73/147/5 75/148/5
f 80/149/1 74/150/1 76/151/1 79/152/1
f 86/153/4 81/154/4 83/155/4 85/156/4
f 79/157/2 76/145/2 75/148/2 78/158/2
f 72/139/2 79/157/2 78/158/2 71/140/2
f 69/143/6 77/159/6 80/160/6 70/144/6
f 70/141/1 80/149/1 79/152/1 72/142/1
f 71/112/4 78/135/4 77/138/4 69/113/4
f 83/161/6 81/162/6 82/163/6 84/164/6
f 85/165/3 83/161/3 84/164/3 87/166/3
f 81/162/6 89/167/6 90/168/6 82/163/6
f 87/169/1 84/170/1 82/171/1 88/172/1
f 80/149/1 87/169/1 88/172/1 74/150/1
f 74/146/5 88/173/5 86/174/5 73/147/5
f 77/159/3 85/165/3 87/166/3 80/160/3
f 73/137/4 86/153/4 85/156/4 77/138/4
f 90/175/1 94/176/1 96/177/1 92/178/1
f 82/171/1 90/175/1 92/178/1 88/172/1
f 86/153/4 91/179/4 89/180/4 81/154/4
f 88/173/2 92/181/2 91/182/2 86/174/2
f 96/183/5 94/184/5 93/185/5 95/186/5
f 89/167/6 93/185/6 94/184/6 90/168/6
f 92/181/2 96/183/2 95/186/2 91/182/2
f 91/179/4 95/187/4 93/188/4 89/180/4
