# Blender v2.91.2 OBJ File: 'cone.blend'
# www.blender.org
mtllib ghost_DS.mtl
o Sphere_Sphere.001
v 0.479637 -1.665193 -0.768217
v 0.250433 -1.881206 -0.411569
v 0.809477 -1.665193 -0.387561
v 0.423841 -1.881206 -0.211447
v 0.881159 -1.665193 0.110992
v 0.461526 -1.881206 0.050658
v 0.671922 -1.665193 0.569156
v 0.351524 -1.881206 0.291529
v 0.248200 -1.665193 0.841466
v 0.128760 -1.881206 0.434691
v -0.003641 -1.494698 -1.080616
v -0.255480 -1.665193 0.841466
v -0.136041 -1.881206 0.434691
v -0.579096 -1.494698 -0.911647
v -0.971847 -1.494698 -0.458387
v -0.679203 -1.665193 0.569156
v -0.358805 -1.881206 0.291529
v -0.003641 -1.955638 -0.016222
v -1.057200 -1.494698 0.135257
v -0.808056 -1.494698 0.680808
v -0.888439 -1.665193 0.110993
v -0.468807 -1.881206 0.050658
v -0.303515 -1.494698 1.005056
v 0.296234 -1.494698 1.005056
v -0.816758 -1.665193 -0.387561
v -0.431122 -1.881206 -0.211446
v 0.800775 -1.494698 0.680807
v 1.049920 -1.494698 0.135257
v -0.486918 -1.665193 -0.768216
v -0.257715 -1.881206 -0.411569
v 0.964566 -1.494698 -0.458388
v 0.571815 -1.494698 -0.911648
v 0.210100 -1.918420 -0.113835
v -0.003641 -1.665193 -0.910120
v -0.003641 -1.881206 -0.486172
v 0.482095 -1.660645 -0.772042
v 0.813613 -1.660645 -0.389450
v 0.885659 -1.660645 0.111639
v 0.675358 -1.660645 0.572133
v 0.249481 -1.660645 0.845828
v -0.256761 -1.660645 0.845828
v -0.682639 -1.660645 0.572133
v -0.892940 -1.660645 0.111640
v -0.820894 -1.660645 -0.389449
v -0.489376 -1.660645 -0.772041
v -0.003641 -1.660645 -0.914666
v 0.000890 -1.493874 -1.079920
v 0.000865 -0.006434 -0.015771
v 0.208419 -1.493874 -1.059481
v 0.407973 -1.493874 -0.998952
v 0.591884 -1.493874 -0.900655
v 0.753082 -1.493874 -0.768370
v 0.885375 -1.493874 -0.607181
v 0.983676 -1.493874 -0.423283
v 1.044210 -1.493874 -0.223740
v 1.064651 -1.493874 -0.016223
v 1.044210 -1.493874 0.191294
v 0.983676 -1.493874 0.390837
v 0.885375 -1.493874 0.574735
v 0.753082 -1.493874 0.735925
v 0.591884 -1.493874 0.868209
v 0.407973 -1.493874 0.966506
v 0.208419 -1.493874 1.027035
v 0.000890 -1.493874 1.047475
v -0.206640 -1.493874 1.027035
v -0.406193 -1.493874 0.966504
v -0.590104 -1.493874 0.868209
v -0.751302 -1.493874 0.735925
v -0.883595 -1.493874 0.574735
v -0.981896 -1.493874 0.390835
v -1.042430 -1.493874 0.191294
v -1.062872 -1.493874 -0.016223
v -1.042430 -1.493874 -0.223742
v -0.981896 -1.493874 -0.423283
v -0.883593 -1.493874 -0.607183
v -0.751302 -1.493874 -0.768370
v -0.590102 -1.493874 -0.900655
v -0.406191 -1.493874 -0.998952
v -0.206638 -1.493874 -1.059481
vt 0.681818 0.000000
vt 0.727273 0.100000
vt 0.636363 0.100000
vt 0.727273 0.200000
vt 0.636364 0.200000
vt 0.590909 0.000000
vt 0.545454 0.100000
vt 0.568182 0.050000
vt 0.545454 0.200000
vt 0.454545 0.200000
vt 0.454545 0.100000
vt 0.500000 0.000000
vt 0.522727 0.050000
vt 0.363636 0.200000
vt 0.363636 0.100000
vt 0.409091 0.000000
vt 0.272727 0.200000
vt 0.272727 0.100000
vt 0.318182 0.000000
vt 0.727273 0.201351
vt 0.727273 0.250676
vt 0.636364 0.250676
vt 0.636364 0.201351
vt 0.181818 0.200000
vt 0.181818 0.100000
vt 0.227273 0.000000
vt 0.136364 0.000000
vt 0.090909 0.100000
vt 0.545454 0.201351
vt 0.545454 0.250676
vt 0.454545 0.250676
vt 0.454545 0.201351
vt 0.090909 0.200000
vt 0.363636 0.250676
vt 0.363636 0.201351
vt 0.045455 0.000000
vt 0.000000 0.100000
vt 0.272727 0.250676
vt 0.272727 0.201351
vt 0.000000 0.200000
vt 1.000000 0.100000
vt 1.000000 0.200000
vt 0.909091 0.200000
vt 0.909091 0.100000
vt 0.181818 0.250676
vt 0.181818 0.201352
vt 0.954546 0.000000
vt 0.090909 0.250676
vt 0.090909 0.201351
vt 0.818182 0.200000
vt 0.818182 0.100000
vt 0.000000 0.250676
vt 0.000000 0.201351
vt 0.863636 0.000000
vt 1.000000 0.201351
vt 1.000000 0.250676
vt 0.909091 0.250676
vt 0.909091 0.201351
vt 0.818182 0.250676
vt 0.818182 0.201351
vt 0.772727 0.000000
vt 0.250000 0.490000
vt 0.250000 0.250000
vt 0.296822 0.485388
vt 0.341844 0.471731
vt 0.383337 0.449553
vt 0.419706 0.419706
vt 0.449553 0.383337
vt 0.471731 0.341844
vt 0.485388 0.296822
vt 0.490000 0.250000
vt 0.485388 0.203178
vt 0.471731 0.158156
vt 0.449553 0.116663
vt 0.419706 0.080294
vt 0.383337 0.050447
vt 0.341844 0.028269
vt 0.296822 0.014612
vt 0.250000 0.010000
vt 0.203178 0.014612
vt 0.158156 0.028269
vt 0.116663 0.050447
vt 0.080294 0.080294
vt 0.050447 0.116663
vt 0.028269 0.158156
vt 0.014611 0.203179
vt 0.010000 0.250000
vt 0.014612 0.296822
vt 0.028269 0.341844
vt 0.050447 0.383337
vt 0.080295 0.419706
vt 0.116663 0.449553
vt 0.158156 0.471731
vt 0.750000 0.490000
vt 0.796822 0.485388
vt 0.841844 0.471731
vt 0.883337 0.449553
vt 0.919706 0.419706
vt 0.949553 0.383337
vt 0.971731 0.341844
vt 0.985388 0.296822
vt 0.990000 0.250000
vt 0.985388 0.203178
vt 0.971731 0.158156
vt 0.949553 0.116663
vt 0.919706 0.080294
vt 0.883337 0.050447
vt 0.841844 0.028269
vt 0.796822 0.014612
vt 0.750000 0.010000
vt 0.703178 0.014612
vt 0.658156 0.028269
vt 0.616663 0.050447
vt 0.580294 0.080294
vt 0.550447 0.116663
vt 0.528269 0.158156
vt 0.514611 0.203179
vt 0.510000 0.250000
vt 0.514612 0.296822
vt 0.528269 0.341844
vt 0.550447 0.383337
vt 0.580295 0.419706
vt 0.616663 0.449553
vt 0.658156 0.471731
vt 0.703179 0.485389
vt 0.203179 0.485389
vn 0.0459 -0.9866 -0.1563
vn 0.1321 -0.8832 -0.4500
vn 0.1231 -0.9866 -0.1066
vn 0.3545 -0.8832 -0.3071
vn 0.4642 -0.8832 -0.0667
vn 0.1612 -0.9866 -0.0232
vn 0.4266 -0.8832 0.1948
vn 0.1481 -0.9866 0.0677
vn 0.2536 -0.8832 0.3946
vn 0.0881 -0.9866 0.1370
vn 0.2033 -0.6923 -0.6923
vn 0.0000 -0.8832 0.4690
vn 0.0000 -0.9866 0.1629
vn -0.0881 -0.9866 0.1370
vn 0.7142 -0.6923 -0.1027
vn -0.2536 -0.8832 0.3946
vn 0.5453 -0.6923 -0.4725
vn 0.6564 -0.6923 0.2997
vn -0.1481 -0.9866 0.0677
vn 0.3901 -0.6923 0.6070
vn -0.4266 -0.8832 0.1948
vn -0.4642 -0.8832 -0.0667
vn 0.0000 -0.6923 0.7216
vn -0.1612 -0.9866 -0.0232
vn -0.3901 -0.6923 0.6070
vn -0.3545 -0.8832 -0.3071
vn -0.6564 -0.6923 0.2997
vn -0.1231 -0.9866 -0.1067
vn -0.7142 -0.6923 -0.1027
vn -0.1321 -0.8832 -0.4500
vn -0.5453 -0.6923 -0.4725
vn -0.0459 -0.9866 -0.1563
vn -0.2033 -0.6923 -0.6923
vn -0.2033 -0.6922 -0.6925
vn -0.5454 -0.6922 -0.4726
vn -0.7143 -0.6922 -0.1027
vn -0.6565 -0.6922 0.2998
vn -0.3902 -0.6922 0.6071
vn 0.0000 -0.6922 0.7217
vn 0.3902 -0.6922 0.6071
vn 0.6565 -0.6922 0.2998
vn 0.7144 -0.6922 -0.1027
vn 0.5454 -0.6922 -0.4726
vn 0.2033 -0.6922 -0.6925
vn 0.0000 -0.4360 -0.8999
vn 0.0000 1.0000 0.0002
vn 0.1755 -0.4360 -0.8826
vn 0.3443 -0.4361 -0.8314
vn 0.4999 -0.4361 -0.7483
vn 0.6363 -0.4361 -0.6363
vn 0.7482 -0.4361 -0.5000
vn 0.8314 -0.4361 -0.3444
vn 0.8826 -0.4361 -0.1756
vn 0.8999 -0.4361 0.0000
vn 0.8826 -0.4361 0.1755
vn 0.8314 -0.4362 0.3443
vn 0.7482 -0.4362 0.4999
vn 0.6362 -0.4362 0.6363
vn 0.4999 -0.4362 0.7482
vn 0.3443 -0.4362 0.8313
vn 0.1755 -0.4362 0.8825
vn 0.0000 -0.4362 0.8998
vn -0.1755 -0.4362 0.8825
vn -0.3443 -0.4362 0.8313
vn -0.4999 -0.4362 0.7482
vn -0.6362 -0.4362 0.6363
vn -0.7482 -0.4362 0.4999
vn -0.8314 -0.4362 0.3443
vn -0.8826 -0.4362 0.1755
vn -0.8999 -0.4361 0.0000
vn -0.8826 -0.4361 -0.1756
vn -0.8314 -0.4361 -0.3444
vn -0.7482 -0.4361 -0.5000
vn -0.6363 -0.4361 -0.6363
vn -0.4999 -0.4361 -0.7483
vn -0.3443 -0.4361 -0.8314
vn -0.1755 -0.4361 -0.8826
usemtl None
s off
f 18/1/1 35/2/1 2/3/1
f 35/2/2 34/4/2 1/5/2 2/3/2
f 18/6/3 2/3/3 4/7/3 33/8/3
f 2/3/4 1/5/4 3/9/4 4/7/4
f 4/7/5 3/9/5 5/10/5 6/11/5
f 18/12/6 33/13/6 4/7/6 6/11/6
f 6/11/7 5/10/7 7/14/7 8/15/7
f 18/16/8 6/11/8 8/15/8
f 8/15/9 7/14/9 9/17/9 10/18/9
f 18/19/10 8/15/10 10/18/10
f 46/20/11 11/21/11 32/22/11 36/23/11
f 10/18/12 9/17/12 12/24/12 13/25/12
f 18/26/13 10/18/13 13/25/13
f 18/27/14 13/25/14 17/28/14
f 37/29/15 31/30/15 28/31/15 38/32/15
f 13/25/16 12/24/16 16/33/16 17/28/16
f 36/23/17 32/22/17 31/30/17 37/29/17
f 38/32/18 28/31/18 27/34/18 39/35/18
f 18/36/19 17/28/19 22/37/19
f 39/35/20 27/34/20 24/38/20 40/39/20
f 17/28/21 16/33/21 21/40/21 22/37/21
f 22/41/22 21/42/22 25/43/22 26/44/22
f 40/39/23 24/38/23 23/45/23 41/46/23
f 18/47/24 22/41/24 26/44/24
f 41/46/25 23/45/25 20/48/25 42/49/25
f 26/44/26 25/43/26 29/50/26 30/51/26
f 42/49/27 20/48/27 19/52/27 43/53/27
f 18/54/28 26/44/28 30/51/28
f 43/55/29 19/56/29 15/57/29 44/58/29
f 30/51/30 29/50/30 34/4/30 35/2/30
f 44/58/31 15/57/31 14/59/31 45/60/31
f 18/61/32 30/51/32 35/2/32
f 45/60/33 14/59/33 11/21/33 46/20/33
f 29/50/34 45/60/34 46/20/34 34/4/34
f 25/43/35 44/58/35 45/60/35 29/50/35
f 21/42/36 43/55/36 44/58/36 25/43/36
f 16/33/37 42/49/37 43/53/37 21/40/37
f 12/24/38 41/46/38 42/49/38 16/33/38
f 9/17/39 40/39/39 41/46/39 12/24/39
f 7/14/40 39/35/40 40/39/40 9/17/40
f 5/10/41 38/32/41 39/35/41 7/14/41
f 3/9/42 37/29/42 38/32/42 5/10/42
f 1/5/43 36/23/43 37/29/43 3/9/43
f 34/4/44 46/20/44 36/23/44 1/5/44
s 1
f 47/62/45 48/63/46 49/64/47
f 49/64/47 48/63/46 50/65/48
f 50/65/48 48/63/46 51/66/49
f 51/66/49 48/63/46 52/67/50
f 52/67/50 48/63/46 53/68/51
f 53/68/51 48/63/46 54/69/52
f 54/69/52 48/63/46 55/70/53
f 55/70/53 48/63/46 56/71/54
f 56/71/54 48/63/46 57/72/55
f 57/72/55 48/63/46 58/73/56
f 58/73/56 48/63/46 59/74/57
f 59/74/57 48/63/46 60/75/58
f 60/75/58 48/63/46 61/76/59
f 61/76/59 48/63/46 62/77/60
f 62/77/60 48/63/46 63/78/61
f 63/78/61 48/63/46 64/79/62
f 64/79/62 48/63/46 65/80/63
f 65/80/63 48/63/46 66/81/64
f 66/81/64 48/63/46 67/82/65
f 67/82/65 48/63/46 68/83/66
f 68/83/66 48/63/46 69/84/67
f 69/84/67 48/63/46 70/85/68
f 70/85/68 48/63/46 71/86/69
f 71/86/69 48/63/46 72/87/70
f 72/87/70 48/63/46 73/88/71
f 73/88/71 48/63/46 74/89/72
f 74/89/72 48/63/46 75/90/73
f 75/90/73 48/63/46 76/91/74
f 76/91/74 48/63/46 77/92/75
f 77/92/75 48/63/46 78/93/76
f 47/94/45 49/95/47 50/96/48 51/97/49 52/98/50 53/99/51 54/100/52 55/101/53 56/102/54 57/103/55 58/104/56 59/105/57 60/106/58 61/107/59 62/108/60 63/109/61 64/110/62 65/111/63 66/112/64 67/113/65 68/114/66 69/115/67 70/116/68 71/117/69 72/118/70 73/119/71 74/120/72 75/121/73 76/122/74 77/123/75 78/124/76 79/125/77
f 78/93/76 48/63/46 79/126/77
f 79/126/77 48/63/46 47/62/45
