# Blender v2.91.2 OBJ File: 'led_base.blend'
# www.blender.org
mtllib led_6.mtl
v -0.323610 0.094044 -0.199922
v -0.323610 0.035613 -0.199922
v -0.319629 0.094044 -0.250504
v -0.319629 0.035613 -0.250504
v -0.307784 0.094044 -0.299842
v -0.307784 0.035613 -0.299842
v -0.288367 0.094044 -0.346718
v -0.288367 0.035613 -0.346718
v -0.261856 0.094044 -0.389980
v -0.261856 0.035613 -0.389980
v -0.228904 0.094044 -0.428563
v -0.228904 0.035613 -0.428563
v -0.294600 0.094044 -0.197639
v -0.294600 0.035613 -0.197639
v -0.290887 0.094044 -0.245953
v -0.290887 0.035613 -0.245953
v -0.280108 0.094044 -0.290849
v -0.280108 0.035613 -0.290849
v -0.262438 0.094044 -0.333507
v -0.262438 0.035613 -0.333507
v -0.238313 0.094044 -0.372875
v -0.238313 0.035613 -0.372875
v -0.206775 0.094044 -0.409663
v -0.206775 0.035613 -0.409663
vt 0.250000 0.000000
vt 0.225000 0.000000
vt 0.225000 1.000000
vt 0.250000 1.000000
vt 0.200000 0.000000
vt 0.200000 1.000000
vt 0.175000 0.000000
vt 0.175000 1.000000
vt 0.150000 0.000000
vt 0.150000 1.000000
vt 0.125000 0.000000
vt 0.125000 1.000000
vt 0.250000 0.000000
vt 0.250000 1.000000
vt 0.225000 1.000000
vt 0.225000 0.000000
vt 0.200000 1.000000
vt 0.200000 0.000000
vt 0.175000 1.000000
vt 0.175000 0.000000
vt 0.150000 1.000000
vt 0.150000 0.000000
vt 0.125000 1.000000
vt 0.125000 0.000000
vn -0.9969 0.0000 -0.0785
vn -0.9724 0.0000 -0.2334
vn -0.9239 0.0000 -0.3827
vn -0.8526 0.0000 -0.5225
vn -0.7604 0.0000 -0.6494
vn 0.9971 0.0000 0.0766
vn 0.9724 0.0000 0.2335
vn 0.9239 0.0000 0.3827
vn 0.8526 0.0000 0.5225
vn 0.7592 0.0000 0.6508
vn -0.0784 0.0000 0.9969
vn 0.0000 1.0000 -0.0000
vn 0.0000 -1.0000 0.0000
vn 0.6494 0.0000 -0.7604
usemtl None
s off
f 1/1/1 3/2/1 4/3/1 2/4/1
f 3/2/2 5/5/2 6/6/2 4/3/2
f 5/5/3 7/7/3 8/8/3 6/6/3
f 7/7/4 9/9/4 10/10/4 8/8/4
f 9/9/5 11/11/5 12/12/5 10/10/5
f 13/13/6 14/14/6 16/15/6 15/16/6
f 15/16/7 16/15/7 18/17/7 17/18/7
f 17/18/8 18/17/8 20/19/8 19/20/8
f 19/20/9 20/19/9 22/21/9 21/22/9
f 21/22/10 22/21/10 24/23/10 23/24/10
f 2/4/11 14/14/11 13/13/11 1/1/11
f 1/1/12 13/13/12 15/16/12 3/2/12
f 4/3/13 16/15/13 14/14/13 2/4/13
f 3/2/12 15/16/12 17/18/12 5/5/12
f 6/6/13 18/17/13 16/15/13 4/3/13
f 5/5/12 17/18/12 19/20/12 7/7/12
f 8/8/13 20/19/13 18/17/13 6/6/13
f 7/7/12 19/20/12 21/22/12 9/9/12
f 10/10/13 22/21/13 20/19/13 8/8/13
f 9/9/12 21/22/12 23/24/12 11/11/12
f 12/12/13 24/23/13 22/21/13 10/10/13
f 11/11/14 23/24/14 24/23/14 12/12/14
