# Blender v2.91.2 OBJ File: 'led_base.blend'
# www.blender.org
mtllib led_0.mtl
v 0.000690 0.094044 -0.524222
v 0.000690 0.035613 -0.524222
v 0.051273 0.094044 -0.520241
v 0.051273 0.035613 -0.520241
v 0.100610 0.094044 -0.508396
v 0.100610 0.035613 -0.508396
v 0.147487 0.094044 -0.488979
v 0.147487 0.035613 -0.488979
v 0.190749 0.094044 -0.462468
v 0.190749 0.035613 -0.462468
v 0.229331 0.094044 -0.429515
v 0.229331 0.035613 -0.429515
v -0.001592 0.094044 -0.495211
v -0.001592 0.035613 -0.495211
v 0.046721 0.094044 -0.491498
v 0.046721 0.035613 -0.491498
v 0.091618 0.094044 -0.480719
v 0.091618 0.035613 -0.480719
v 0.134276 0.094044 -0.463050
v 0.134276 0.035613 -0.463050
v 0.173644 0.094044 -0.438924
v 0.173644 0.035613 -0.438924
v 0.210432 0.094044 -0.407387
v 0.210432 0.035613 -0.407387
vt 1.000000 0.000000
vt 0.975000 0.000000
vt 0.975000 1.000000
vt 1.000000 1.000000
vt 0.950000 0.000000
vt 0.950000 1.000000
vt 0.925000 0.000000
vt 0.925000 1.000000
vt 0.900000 0.000000
vt 0.900000 1.000000
vt 0.875000 0.000000
vt 0.875000 1.000000
vt 1.000000 0.000000
vt 1.000000 1.000000
vt 0.975000 1.000000
vt 0.975000 0.000000
vt 0.950000 1.000000
vt 0.950000 0.000000
vt 0.925000 1.000000
vt 0.925000 0.000000
vt 0.900000 1.000000
vt 0.900000 0.000000
vt 0.875000 1.000000
vt 0.875000 0.000000
vn 0.0785 0.0000 -0.9969
vn 0.2334 0.0000 -0.9724
vn 0.3827 0.0000 -0.9239
vn 0.5225 0.0000 -0.8526
vn 0.6494 0.0000 -0.7604
vn -0.0766 0.0000 0.9971
vn -0.2335 0.0000 0.9724
vn -0.3827 0.0000 0.9239
vn -0.5225 0.0000 0.8526
vn -0.6509 0.0000 0.7592
vn 0.0000 1.0000 0.0000
vn -0.9969 0.0000 -0.0784
vn 0.0000 -1.0000 0.0000
vn 0.7604 0.0000 0.6494
usemtl None
s off
f 1/1/1 3/2/1 4/3/1 2/4/1
f 3/2/2 5/5/2 6/6/2 4/3/2
f 5/5/3 7/7/3 8/8/3 6/6/3
f 7/7/4 9/9/4 10/10/4 8/8/4
f 9/9/5 11/11/5 12/12/5 10/10/5
f 13/13/6 14/14/6 16/15/6 15/16/6
f 15/16/7 16/15/7 18/17/7 17/18/7
f 17/18/8 18/17/8 20/19/8 19/20/8
f 19/20/9 20/19/9 22/21/9 21/22/9
f 21/22/10 22/21/10 24/23/10 23/24/10
f 1/1/11 13/13/11 15/16/11 3/2/11
f 2/4/12 14/14/12 13/13/12 1/1/12
f 4/3/13 16/15/13 14/14/13 2/4/13
f 3/2/11 15/16/11 17/18/11 5/5/11
f 6/6/13 18/17/13 16/15/13 4/3/13
f 5/5/11 17/18/11 19/20/11 7/7/11
f 8/8/13 20/19/13 18/17/13 6/6/13
f 7/7/11 19/20/11 21/22/11 9/9/11
f 10/10/13 22/21/13 20/19/13 8/8/13
f 9/9/11 21/22/11 23/24/11 11/11/11
f 12/12/13 24/23/13 22/21/13 10/10/13
f 11/11/14 23/24/14 24/23/14 12/12/14
