# Blender v2.91.2 OBJ File: 'cone.blend'
# www.blender.org
mtllib ghost_LS.mtl
o Cone.001
v -0.000002 -15.025266 -15.027277
v 0.000000 -0.011649 -0.000000
v 2.931849 -15.025266 -14.738523
v 5.751023 -15.025267 -13.883399
v 8.349207 -15.025267 -12.494720
v 10.626514 -15.025267 -10.625887
v 12.495468 -15.025268 -8.348699
v 13.884209 -15.025268 -5.750695
v 14.739391 -15.025268 -2.931672
v 15.028176 -15.025269 -0.000001
v 14.739391 -15.025270 2.931669
v 13.884209 -15.025270 5.750693
v 12.495468 -15.025270 8.348694
v 10.626514 -15.025270 10.625884
v 8.349207 -15.025270 12.494716
v 5.751023 -15.025270 13.883396
v 2.931849 -15.025271 14.738519
v -0.000002 -15.025271 15.027272
v -2.931854 -15.025271 14.738519
v -5.751027 -15.025270 13.883365
v -8.349209 -15.025270 12.494716
v -10.626519 -15.025270 10.625884
v -12.495473 -15.025270 8.348694
v -13.884212 -15.025270 5.750663
v -14.739396 -15.025270 2.931669
v -15.028179 -15.025269 -0.000001
v -14.739396 -15.025268 -2.931702
v -13.884212 -15.025268 -5.750695
v -12.495442 -15.025268 -8.348728
v -10.626519 -15.025267 -10.625887
v -8.349179 -15.025267 -12.494720
v -5.750997 -15.025267 -13.883399
v -2.931824 -15.025266 -14.738523
vt 0.250000 0.490000
vt 0.250000 0.250000
vt 0.296822 0.485388
vt 0.341844 0.471731
vt 0.383337 0.449553
vt 0.419706 0.419706
vt 0.449553 0.383337
vt 0.471731 0.341844
vt 0.485388 0.296822
vt 0.490000 0.250000
vt 0.485388 0.203178
vt 0.471731 0.158156
vt 0.449553 0.116663
vt 0.419706 0.080294
vt 0.383337 0.050447
vt 0.341844 0.028269
vt 0.296822 0.014612
vt 0.250000 0.010000
vt 0.203178 0.014612
vt 0.158156 0.028269
vt 0.116663 0.050447
vt 0.080294 0.080294
vt 0.050447 0.116663
vt 0.028269 0.158156
vt 0.014611 0.203179
vt 0.010000 0.250000
vt 0.014612 0.296822
vt 0.028269 0.341844
vt 0.050447 0.383337
vt 0.080295 0.419706
vt 0.116663 0.449553
vt 0.158156 0.471731
vt 0.750000 0.490000
vt 0.796822 0.485388
vt 0.841844 0.471731
vt 0.883337 0.449553
vt 0.919706 0.419706
vt 0.949553 0.383337
vt 0.971731 0.341844
vt 0.985388 0.296822
vt 0.990000 0.250000
vt 0.985388 0.203178
vt 0.971731 0.158156
vt 0.949553 0.116663
vt 0.919706 0.080294
vt 0.883337 0.050447
vt 0.841844 0.028269
vt 0.796822 0.014612
vt 0.750000 0.010000
vt 0.703178 0.014612
vt 0.658156 0.028269
vt 0.616663 0.050447
vt 0.580294 0.080294
vt 0.550447 0.116663
vt 0.528269 0.158156
vt 0.514611 0.203179
vt 0.510000 0.250000
vt 0.514612 0.296822
vt 0.528269 0.341844
vt 0.550447 0.383337
vt 0.580295 0.419706
vt 0.616663 0.449553
vt 0.658156 0.471731
vt 0.703179 0.485389
vt 0.203179 0.485389
vn 0.0694 0.7057 -0.7051
vn 0.2056 0.7057 -0.6780
vn 0.3340 0.7057 -0.6248
vn 0.4494 0.7057 -0.5477
vn 0.5476 0.7057 -0.4495
vn 0.6248 0.7057 -0.3340
vn 0.6780 0.7057 -0.2057
vn 0.7051 0.7057 -0.0695
vn 0.7051 0.7057 0.0695
vn 0.6780 0.7057 0.2057
vn 0.6248 0.7057 0.3340
vn 0.5476 0.7057 0.4495
vn 0.4494 0.7057 0.5477
vn 0.3340 0.7057 0.6248
vn 0.2056 0.7057 0.6780
vn 0.0694 0.7057 0.7051
vn -0.0694 0.7057 0.7051
vn -0.2057 0.7057 0.6780
vn -0.3340 0.7057 0.6248
vn -0.4494 0.7057 0.5477
vn -0.5476 0.7057 0.4495
vn -0.6248 0.7057 0.3340
vn -0.6780 0.7057 0.2057
vn -0.7051 0.7057 0.0695
vn -0.7051 0.7057 -0.0695
vn -0.6780 0.7057 -0.2057
vn -0.6248 0.7057 -0.3340
vn -0.5476 0.7057 -0.4495
vn -0.4494 0.7057 -0.5477
vn -0.3340 0.7057 -0.6248
vn 0.0000 -1.0000 -0.0000
vn -0.2057 0.7057 -0.6780
vn -0.0694 0.7057 -0.7051
usemtl None
s 1
f 1/1/1 2/2/1 3/3/1
f 3/3/2 2/2/2 4/4/2
f 4/4/3 2/2/3 5/5/3
f 5/5/4 2/2/4 6/6/4
f 6/6/5 2/2/5 7/7/5
f 7/7/6 2/2/6 8/8/6
f 8/8/7 2/2/7 9/9/7
f 9/9/8 2/2/8 10/10/8
f 10/10/9 2/2/9 11/11/9
f 11/11/10 2/2/10 12/12/10
f 12/12/11 2/2/11 13/13/11
f 13/13/12 2/2/12 14/14/12
f 14/14/13 2/2/13 15/15/13
f 15/15/14 2/2/14 16/16/14
f 16/16/15 2/2/15 17/17/15
f 17/17/16 2/2/16 18/18/16
f 18/18/17 2/2/17 19/19/17
f 19/19/18 2/2/18 20/20/18
f 20/20/19 2/2/19 21/21/19
f 21/21/20 2/2/20 22/22/20
f 22/22/21 2/2/21 23/23/21
f 23/23/22 2/2/22 24/24/22
f 24/24/23 2/2/23 25/25/23
f 25/25/24 2/2/24 26/26/24
f 26/26/25 2/2/25 27/27/25
f 27/27/26 2/2/26 28/28/26
f 28/28/27 2/2/27 29/29/27
f 29/29/28 2/2/28 30/30/28
f 30/30/29 2/2/29 31/31/29
f 31/31/30 2/2/30 32/32/30
f 1/33/31 3/34/31 4/35/31 5/36/31 6/37/31 7/38/31 8/39/31 9/40/31 10/41/31 11/42/31 12/43/31 13/44/31 14/45/31 15/46/31 16/47/31 17/48/31 18/49/31 19/50/31 20/51/31 21/52/31 22/53/31 23/54/31 24/55/31 25/56/31 26/57/31 27/58/31 28/59/31 29/60/31 30/61/31 31/62/31 32/63/31 33/64/31
f 32/32/32 2/2/32 33/65/32
f 33/65/33 2/2/33 1/1/33
o Sphere_Sphere.001
v 6.891457 -17.381557 -10.623719
v 3.653409 -20.433245 -5.585217
v 11.551241 -17.381557 -5.246042
v 6.103202 -20.433245 -2.758005
v 12.563910 -17.381557 1.797217
v 6.635592 -20.433245 0.944856
v 9.607947 -17.381557 8.269874
v 5.081551 -20.433245 4.347733
v 3.621852 -17.381557 12.116905
v 1.934474 -20.433245 6.370236
v 0.064000 -14.972883 -15.037107
v -3.493834 -17.381557 12.116907
v -1.806463 -20.433245 6.370236
v -8.065676 -14.972883 -12.650019
v -13.614236 -14.972883 -6.246634
v -9.479931 -17.381557 8.269878
v -4.953540 -20.433245 4.347733
v 0.064005 -21.484785 0.000004
v -14.820052 -14.972883 2.140013
v -11.300285 -14.972883 9.847224
v -12.435896 -17.381557 1.797223
v -6.507582 -20.433245 0.944857
v -4.172437 -14.972883 14.428012
v 4.300453 -14.972883 14.428012
v -11.423229 -17.381557 -5.246035
v -5.975192 -20.433245 -2.758003
v 11.428302 -14.972883 9.847220
v 14.948067 -14.972883 2.140007
v -6.763449 -17.381557 -10.623713
v -3.525400 -20.433245 -5.585214
v 13.742249 -14.972883 -6.246641
v 8.193685 -14.972883 -12.650024
v 3.083604 -20.959015 -1.379000
v 0.064000 -17.381557 -12.628434
v 0.064002 -20.433245 -6.639159
v 6.926183 -17.317326 -10.677754
v 11.609668 -17.317326 -5.272725
v 12.627487 -17.317326 1.806358
v 9.656490 -17.317326 8.311936
v 3.639948 -17.317326 12.178535
v -3.511930 -17.317326 12.178537
v -9.528474 -17.317326 8.311941
v -12.499473 -17.317326 1.806364
v -11.481655 -17.317327 -5.272717
v -6.798175 -17.317326 -10.677747
v 0.064000 -17.317326 -12.692664
vt 0.681818 0.000000
vt 0.727273 0.100000
vt 0.636363 0.100000
vt 0.727273 0.200000
vt 0.636364 0.200000
vt 0.590909 0.000000
vt 0.545454 0.100000
vt 0.568182 0.050000
vt 0.545454 0.200000
vt 0.454545 0.200000
vt 0.454545 0.100000
vt 0.500000 0.000000
vt 0.522727 0.050000
vt 0.363636 0.200000
vt 0.363636 0.100000
vt 0.409091 0.000000
vt 0.272727 0.200000
vt 0.272727 0.100000
vt 0.318182 0.000000
vt 0.727273 0.201351
vt 0.727273 0.250676
vt 0.636364 0.250676
vt 0.636364 0.201351
vt 0.181818 0.200000
vt 0.181818 0.100000
vt 0.227273 0.000000
vt 0.136364 0.000000
vt 0.090909 0.100000
vt 0.545454 0.201351
vt 0.545454 0.250676
vt 0.454545 0.250676
vt 0.454545 0.201351
vt 0.090909 0.200000
vt 0.363636 0.250676
vt 0.363636 0.201351
vt 0.045455 0.000000
vt 0.000000 0.100000
vt 0.272727 0.250676
vt 0.272727 0.201351
vt 0.000000 0.200000
vt 1.000000 0.100000
vt 1.000000 0.200000
vt 0.909091 0.200000
vt 0.909091 0.100000
vt 0.181818 0.250676
vt 0.181818 0.201352
vt 0.954546 0.000000
vt 0.090909 0.250676
vt 0.090909 0.201351
vt 0.818182 0.200000
vt 0.818182 0.100000
vt 0.000000 0.250676
vt 0.000000 0.201351
vt 0.863636 0.000000
vt 1.000000 0.201351
vt 1.000000 0.250676
vt 0.909091 0.250676
vt 0.909091 0.201351
vt 0.818182 0.250676
vt 0.818182 0.201351
vt 0.772727 0.000000
vn 0.0459 -0.9866 -0.1563
vn 0.1321 -0.8832 -0.4500
vn 0.1231 -0.9866 -0.1067
vn 0.3545 -0.8832 -0.3071
vn 0.4642 -0.8832 -0.0667
vn 0.1612 -0.9866 -0.0232
vn 0.4266 -0.8832 0.1948
vn 0.1481 -0.9866 0.0677
vn 0.2536 -0.8832 0.3946
vn 0.0881 -0.9866 0.1370
vn 0.2033 -0.6923 -0.6923
vn 0.0000 -0.8832 0.4690
vn 0.0000 -0.9866 0.1629
vn -0.0881 -0.9866 0.1370
vn 0.7142 -0.6923 -0.1027
vn -0.2536 -0.8832 0.3946
vn 0.5453 -0.6923 -0.4725
vn 0.6564 -0.6923 0.2998
vn -0.1481 -0.9866 0.0677
vn 0.3901 -0.6923 0.6070
vn -0.4266 -0.8832 0.1948
vn -0.4642 -0.8832 -0.0667
vn 0.0000 -0.6923 0.7216
vn -0.1612 -0.9866 -0.0232
vn -0.3901 -0.6923 0.6070
vn -0.3545 -0.8832 -0.3071
vn -0.6564 -0.6923 0.2998
vn -0.1231 -0.9866 -0.1067
vn -0.7142 -0.6923 -0.1027
vn -0.1321 -0.8832 -0.4500
vn -0.5453 -0.6923 -0.4725
vn -0.0459 -0.9866 -0.1563
vn -0.2033 -0.6923 -0.6923
vn 0.2033 -0.6923 -0.6924
usemtl None
s off
f 51/66/34 68/67/34 35/68/34
f 68/67/35 67/69/35 34/70/35 35/68/35
f 51/71/36 35/68/36 37/72/36 66/73/36
f 35/68/37 34/70/37 36/74/37 37/72/37
f 37/72/38 36/74/38 38/75/38 39/76/38
f 51/77/39 66/78/39 37/72/39 39/76/39
f 39/76/40 38/75/40 40/79/40 41/80/40
f 51/81/41 39/76/41 41/80/41
f 41/80/42 40/79/42 42/82/42 43/83/42
f 51/84/43 41/80/43 43/83/43
f 79/85/44 44/86/44 65/87/44 69/88/44
f 43/83/45 42/82/45 45/89/45 46/90/45
f 51/91/46 43/83/46 46/90/46
f 51/92/47 46/90/47 50/93/47
f 70/94/48 64/95/48 61/96/48 71/97/48
f 46/90/49 45/89/49 49/98/49 50/93/49
f 69/88/50 65/87/50 64/95/50 70/94/50
f 71/97/51 61/96/51 60/99/51 72/100/51
f 51/101/52 50/93/52 55/102/52
f 72/100/53 60/99/53 57/103/53 73/104/53
f 50/93/54 49/98/54 54/105/54 55/102/54
f 55/106/55 54/107/55 58/108/55 59/109/55
f 73/104/56 57/103/56 56/110/56 74/111/56
f 51/112/57 55/106/57 59/109/57
f 74/111/58 56/110/58 53/113/58 75/114/58
f 59/109/59 58/108/59 62/115/59 63/116/59
f 75/114/60 53/113/60 52/117/60 76/118/60
f 51/119/61 59/109/61 63/116/61
f 76/120/62 52/121/62 48/122/62 77/123/62
f 63/116/63 62/115/63 67/69/63 68/67/63
f 77/123/64 48/122/64 47/124/64 78/125/64
f 51/126/65 63/116/65 68/67/65
f 78/125/66 47/124/66 44/86/66 79/85/66
f 62/115/66 78/125/66 79/85/66 67/69/66
f 58/108/64 77/123/64 78/125/64 62/115/64
f 54/107/62 76/120/62 77/123/62 58/108/62
f 49/98/60 75/114/60 76/118/60 54/105/60
f 45/89/58 74/111/58 75/114/58 49/98/58
f 42/82/56 73/104/56 74/111/56 45/89/56
f 40/79/53 72/100/53 73/104/53 42/82/53
f 38/75/51 71/97/51 72/100/51 40/79/51
f 36/74/48 70/94/48 71/97/48 38/75/48
f 34/70/50 69/88/50 70/94/50 36/74/50
f 67/69/67 79/85/67 69/88/67 34/70/67
