# Blender v2.91.2 OBJ File: 'led_0.blend'
# www.blender.org
mtllib led_0.mtl
o Cylinder
v -0.000578 0.039962 -0.099114
v -0.000578 0.021932 -0.099114
v 0.018625 0.039962 -0.097223
v 0.018625 0.021932 -0.097223
v 0.037090 0.039962 -0.091621
v 0.037090 0.021932 -0.091621
v -0.038245 0.039962 -0.091621
v -0.038245 0.021932 -0.091621
v -0.019780 0.039962 -0.097223
v -0.019780 0.021932 -0.097223
v -0.013196 0.039962 -0.097871
v -0.013196 0.021932 -0.097871
v -0.000578 0.039962 -0.116020
v -0.000578 0.021932 -0.116020
v 0.021923 0.039962 -0.113803
v 0.021923 0.021932 -0.113803
v 0.041998 0.039962 -0.107799
v 0.041998 0.021932 -0.107799
v -0.043152 0.039962 -0.107799
v -0.043152 0.021932 -0.107799
v -0.023078 0.039962 -0.113803
v -0.023078 0.021932 -0.113803
v -0.014852 0.039962 -0.114695
v -0.014852 0.021932 -0.114695
vt 1.000000 0.000000
vt 1.000000 1.000000
vt 0.968750 1.000000
vt 0.968750 0.000000
vt 0.937500 1.000000
vt 0.937500 0.000000
vt 0.062500 0.000000
vt 0.062500 1.000000
vt 0.031250 1.000000
vt 0.031250 0.000000
vt 0.020534 0.000000
vt 0.020534 1.000000
vt 0.000000 1.000000
vt 0.000000 0.000000
vt 1.000000 0.000000
vt 0.968750 0.000000
vt 0.968750 1.000000
vt 1.000000 1.000000
vt 0.937500 0.000000
vt 0.937500 1.000000
vt 0.062500 0.000000
vt 0.031250 0.000000
vt 0.031250 1.000000
vt 0.062500 1.000000
vt 0.020534 0.000000
vt 0.000000 0.000000
vt 0.000000 1.000000
vt 0.020534 1.000000
vn -0.0980 0.0000 0.9952
vn -0.2903 0.0000 0.9569
vn 0.2903 0.0000 0.9569
vn 0.0980 0.0000 0.9952
vn 0.0980 0.0000 -0.9952
vn 0.2866 0.0000 -0.9581
vn -0.2866 0.0000 -0.9581
vn -0.0924 0.0000 -0.9957
vn -0.1078 0.0000 -0.9942
vn 0.0000 1.0000 0.0000
vn 0.0000 -1.0000 0.0000
vn 0.9569 0.0000 0.2903
vn -0.9569 0.0000 0.2903
usemtl None
s off
f 1/1/1 2/2/1 4/3/1 3/4/1
f 3/4/2 4/3/2 6/5/2 5/6/2
f 7/7/3 8/8/3 10/9/3 9/10/3
f 11/11/4 12/12/4 2/13/4 1/14/4
f 9/10/4 10/9/4 12/12/4 11/11/4
f 13/15/5 15/16/5 16/17/5 14/18/5
f 15/16/6 17/19/6 18/20/6 16/17/6
f 19/21/7 21/22/7 22/23/7 20/24/7
f 23/25/8 13/26/8 14/27/8 24/28/8
f 21/22/9 23/25/9 24/28/9 22/23/9
f 1/1/10 3/4/10 15/16/10 13/15/10
f 4/3/11 2/2/11 14/18/11 16/17/11
f 3/4/10 5/6/10 17/19/10 15/16/10
f 6/5/11 4/3/11 16/17/11 18/20/11
f 5/6/12 6/5/12 18/20/12 17/19/12
f 8/8/13 7/7/13 19/21/13 20/24/13
f 7/7/10 9/10/10 21/22/10 19/21/10
f 10/9/11 8/8/11 20/24/11 22/23/11
f 9/10/10 11/11/10 23/25/10 21/22/10
f 2/13/11 12/12/11 24/28/11 14/27/11
f 11/11/10 1/14/10 13/26/10 23/25/10
f 12/12/11 10/9/11 22/23/11 24/28/11
