# Blender v2.91.2 OBJ File: 'led_6.blend'
# www.blender.org
mtllib led_6.mtl
o Cylinder
v -0.091516 0.040325 0.036985
v -0.091516 0.021932 0.036985
v -0.097117 0.040325 0.018520
v -0.097117 0.021932 0.018520
v -0.099009 0.040325 -0.000683
v -0.099009 0.021932 -0.000683
v -0.097117 0.040325 -0.019886
v -0.097117 0.021932 -0.019886
v -0.091516 0.040325 -0.038351
v -0.091516 0.021932 -0.038351
v -0.107694 0.040325 0.041892
v -0.107694 0.021932 0.041892
v -0.113698 0.040325 0.021818
v -0.113698 0.021932 0.021818
v -0.115914 0.040325 -0.000683
v -0.115914 0.021932 -0.000683
v -0.113698 0.040325 -0.023184
v -0.113698 0.021932 -0.023184
v -0.107694 0.040325 -0.043258
v -0.107694 0.021932 -0.043258
vt 0.312500 0.000000
vt 0.312500 1.000000
vt 0.281250 1.000000
vt 0.281250 0.000000
vt 0.250000 1.000000
vt 0.250000 0.000000
vt 0.218750 1.000000
vt 0.218750 0.000000
vt 0.187500 1.000000
vt 0.187500 0.000000
vt 0.312500 0.000000
vt 0.281250 0.000000
vt 0.281250 1.000000
vt 0.312500 1.000000
vt 0.250000 0.000000
vt 0.250000 1.000000
vt 0.218750 0.000000
vt 0.218750 1.000000
vt 0.187500 0.000000
vt 0.187500 1.000000
vn 0.9569 0.0000 -0.2903
vn 0.9952 0.0000 -0.0980
vn 0.9952 0.0000 0.0980
vn 0.9569 0.0000 0.2903
vn -0.9581 0.0000 0.2866
vn -0.9952 0.0000 0.0980
vn -0.9952 0.0000 -0.0980
vn -0.9581 0.0000 -0.2866
vn 0.2903 0.0000 0.9569
vn 0.0000 1.0000 0.0000
vn 0.0000 -1.0000 0.0000
vn 0.2903 0.0000 -0.9569
usemtl None
s off
f 1/1/1 2/2/1 4/3/1 3/4/1
f 3/4/2 4/3/2 6/5/2 5/6/2
f 5/6/3 6/5/3 8/7/3 7/8/3
f 7/8/4 8/7/4 10/9/4 9/10/4
f 11/11/5 13/12/5 14/13/5 12/14/5
f 13/12/6 15/15/6 16/16/6 14/13/6
f 15/15/7 17/17/7 18/18/7 16/16/7
f 17/17/8 19/19/8 20/20/8 18/18/8
f 2/2/9 1/1/9 11/11/9 12/14/9
f 1/1/10 3/4/10 13/12/10 11/11/10
f 4/3/11 2/2/11 12/14/11 14/13/11
f 3/4/10 5/6/10 15/15/10 13/12/10
f 6/5/11 4/3/11 14/13/11 16/16/11
f 5/6/10 7/8/10 17/17/10 15/15/10
f 8/7/11 6/5/11 16/16/11 18/18/11
f 7/8/10 9/10/10 19/19/10 17/17/10
f 10/9/11 8/7/11 18/18/11 20/20/11
f 9/10/12 10/9/12 20/20/12 19/19/12
