# Blender v2.91.2 OBJ File: 'led_4.blend'
# www.blender.org
mtllib led_4.mtl
o Cylinder
v 0.037090 0.040325 0.090256
v 0.037090 0.021932 0.090256
v 0.018625 0.040325 0.095857
v 0.018625 0.021932 0.095857
v -0.000578 0.040325 0.097748
v -0.000578 0.021932 0.097748
v -0.019781 0.040325 0.095857
v -0.019781 0.021932 0.095857
v -0.038246 0.040325 0.090256
v -0.038246 0.021932 0.090256
v 0.041998 0.040325 0.106433
v 0.041998 0.021932 0.106433
v 0.021923 0.040325 0.112438
v 0.021923 0.021932 0.112438
v -0.000578 0.040325 0.114654
v -0.000578 0.021932 0.114654
v -0.023078 0.040325 0.112438
v -0.023078 0.021932 0.112438
v -0.043153 0.040325 0.106433
v -0.043153 0.021932 0.106433
vt 0.562500 0.000000
vt 0.562500 1.000000
vt 0.531250 1.000000
vt 0.531250 0.000000
vt 0.500000 1.000000
vt 0.500000 0.000000
vt 0.468750 1.000000
vt 0.468750 0.000000
vt 0.437500 1.000000
vt 0.437500 0.000000
vt 0.562500 0.000000
vt 0.531250 0.000000
vt 0.531250 1.000000
vt 0.562500 1.000000
vt 0.500000 0.000000
vt 0.500000 1.000000
vt 0.468750 0.000000
vt 0.468750 1.000000
vt 0.437500 0.000000
vt 0.437500 1.000000
vn -0.2903 0.0000 -0.9569
vn -0.0980 0.0000 -0.9952
vn 0.0980 0.0000 -0.9952
vn 0.2903 0.0000 -0.9569
vn 0.2866 0.0000 0.9581
vn 0.0980 0.0000 0.9952
vn -0.0980 0.0000 0.9952
vn -0.2866 0.0000 0.9581
vn 0.9569 0.0000 -0.2903
vn 0.0000 1.0000 -0.0000
vn 0.0000 -1.0000 0.0000
vn -0.9569 0.0000 -0.2903
usemtl None
s off
f 1/1/1 2/2/1 4/3/1 3/4/1
f 3/4/2 4/3/2 6/5/2 5/6/2
f 5/6/3 6/5/3 8/7/3 7/8/3
f 7/8/4 8/7/4 10/9/4 9/10/4
f 11/11/5 13/12/5 14/13/5 12/14/5
f 13/12/6 15/15/6 16/16/6 14/13/6
f 15/15/7 17/17/7 18/18/7 16/16/7
f 17/17/8 19/19/8 20/20/8 18/18/8
f 2/2/9 1/1/9 11/11/9 12/14/9
f 1/1/10 3/4/10 13/12/10 11/11/10
f 4/3/11 2/2/11 12/14/11 14/13/11
f 3/4/10 5/6/10 15/15/10 13/12/10
f 6/5/11 4/3/11 14/13/11 16/16/11
f 5/6/10 7/8/10 17/17/10 15/15/10
f 8/7/11 6/5/11 16/16/11 18/18/11
f 7/8/10 9/10/10 19/19/10 17/17/10
f 10/9/11 8/7/11 18/18/11 20/20/11
f 9/10/12 10/9/12 20/20/12 19/19/12
