# Blender v2.91.2 OBJ File: 'led_base.blend'
# www.blender.org
mtllib led_7.mtl
v -0.000263 0.094044 -0.523269
v -0.000263 0.035613 -0.523269
v -0.228904 0.094044 -0.428563
v -0.228904 0.035613 -0.428563
v -0.190321 0.094044 -0.461515
v -0.190321 0.035613 -0.461515
v -0.147059 0.094044 -0.488026
v -0.147059 0.035613 -0.488026
v -0.100182 0.094044 -0.507443
v -0.100182 0.035613 -0.507443
v -0.050845 0.094044 -0.519288
v -0.050845 0.035613 -0.519288
v 0.002020 0.094044 -0.494258
v 0.002020 0.035613 -0.494258
v -0.210004 0.094044 -0.406434
v -0.210004 0.035613 -0.406434
v -0.173217 0.094044 -0.437972
v -0.173217 0.035613 -0.437972
v -0.133848 0.094044 -0.462097
v -0.133848 0.035613 -0.462097
v -0.091190 0.094044 -0.479766
v -0.091190 0.035613 -0.479766
v -0.046293 0.094044 -0.490545
v -0.046293 0.035613 -0.490545
vt 0.125000 0.000000
vt 0.100000 0.000000
vt 0.100000 1.000000
vt 0.125000 1.000000
vt 0.075000 0.000000
vt 0.075000 1.000000
vt 0.050000 0.000000
vt 0.050000 1.000000
vt 0.025000 0.000000
vt 0.025000 1.000000
vt 0.000000 0.000000
vt 0.000000 1.000000
vt 0.125000 0.000000
vt 0.125000 1.000000
vt 0.100000 1.000000
vt 0.100000 0.000000
vt 0.075000 1.000000
vt 0.075000 0.000000
vt 0.050000 1.000000
vt 0.050000 0.000000
vt 0.025000 1.000000
vt 0.025000 0.000000
vt 0.000000 1.000000
vt 0.000000 0.000000
vn -0.6494 0.0000 -0.7604
vn -0.5225 0.0000 -0.8526
vn -0.3827 0.0000 -0.9239
vn -0.2334 0.0000 -0.9724
vn -0.0785 0.0000 -0.9969
vn 0.6509 0.0000 0.7592
vn 0.5225 0.0000 0.8526
vn 0.3827 0.0000 0.9239
vn 0.2335 0.0000 0.9724
vn 0.0766 0.0000 0.9971
vn 0.9969 0.0000 -0.0784
vn -0.7604 0.0000 0.6494
vn 0.0000 1.0000 0.0000
vn 0.0000 -1.0000 0.0000
usemtl None
s off
f 3/1/1 5/2/1 6/3/1 4/4/1
f 5/2/2 7/5/2 8/6/2 6/3/2
f 7/5/3 9/7/3 10/8/3 8/6/3
f 9/7/4 11/9/4 12/10/4 10/8/4
f 11/9/5 1/11/5 2/12/5 12/10/5
f 15/13/6 16/14/6 18/15/6 17/16/6
f 17/16/7 18/15/7 20/17/7 19/18/7
f 19/18/8 20/17/8 22/19/8 21/20/8
f 21/20/9 22/19/9 24/21/9 23/22/9
f 23/22/10 24/21/10 14/23/10 13/24/10
f 1/11/11 13/24/11 14/23/11 2/12/11
f 4/4/12 16/14/12 15/13/12 3/1/12
f 3/1/13 15/13/13 17/16/13 5/2/13
f 6/3/14 18/15/14 16/14/14 4/4/14
f 5/2/13 17/16/13 19/18/13 7/5/13
f 8/6/14 20/17/14 18/15/14 6/3/14
f 7/5/13 19/18/13 21/20/13 9/7/13
f 10/8/14 22/19/14 20/17/14 8/6/14
f 9/7/13 21/20/13 23/22/13 11/9/13
f 12/10/14 24/21/14 22/19/14 10/8/14
f 11/9/13 23/22/13 13/24/13 1/11/13
f 2/12/14 14/23/14 24/21/14 12/10/14
