# Blender v2.91.2 OBJ File: 'led_1.blend'
# www.blender.org
mtllib led_1.mtl
o Cylinder
v 0.037090 0.039979 -0.091621
v 0.037090 0.021932 -0.091621
v 0.054108 0.039979 -0.082525
v 0.054108 0.021932 -0.082525
v 0.069024 0.039979 -0.070284
v 0.069024 0.021932 -0.070284
v 0.081265 0.039979 -0.055368
v 0.081265 0.021932 -0.055368
v 0.090361 0.039979 -0.038351
v 0.090361 0.021932 -0.038351
v 0.045060 0.039979 -0.106530
v 0.045060 0.021932 -0.106530
v 0.063500 0.039979 -0.096581
v 0.063500 0.021932 -0.096581
v 0.080978 0.039979 -0.082238
v 0.080978 0.021932 -0.082238
v 0.095321 0.039979 -0.064760
v 0.095321 0.021932 -0.064760
v 0.105270 0.039979 -0.046320
v 0.105270 0.021932 -0.046320
vt 0.937500 0.000000
vt 0.937500 1.000000
vt 0.906250 1.000000
vt 0.906250 0.000000
vt 0.875000 1.000000
vt 0.875000 0.000000
vt 0.843750 1.000000
vt 0.843750 0.000000
vt 0.812500 1.000000
vt 0.812500 0.000000
vt 0.937500 0.000000
vt 0.906250 0.000000
vt 0.906250 1.000000
vt 0.937500 1.000000
vt 0.875000 0.000000
vt 0.875000 1.000000
vt 0.843750 0.000000
vt 0.843750 1.000000
vt 0.812500 0.000000
vt 0.812500 1.000000
vn -0.4714 0.0000 0.8819
vn -0.6344 0.0000 0.7730
vn -0.7730 0.0000 0.6344
vn -0.8819 0.0000 0.4714
vn 0.4748 0.0000 -0.8801
vn 0.6344 0.0000 -0.7730
vn 0.7730 0.0000 -0.6344
vn 0.8801 0.0000 -0.4748
vn -0.8819 0.0000 -0.4714
vn 0.0000 1.0000 0.0000
vn 0.0000 -1.0000 0.0000
vn 0.4714 0.0000 0.8819
usemtl None
s off
f 1/1/1 2/2/1 4/3/1 3/4/1
f 3/4/2 4/3/2 6/5/2 5/6/2
f 5/6/3 6/5/3 8/7/3 7/8/3
f 7/8/4 8/7/4 10/9/4 9/10/4
f 11/11/5 13/12/5 14/13/5 12/14/5
f 13/12/6 15/15/6 16/16/6 14/13/6
f 15/15/7 17/17/7 18/18/7 16/16/7
f 17/17/8 19/19/8 20/20/8 18/18/8
f 2/2/9 1/1/9 11/11/9 12/14/9
f 1/1/10 3/4/10 13/12/10 11/11/10
f 4/3/11 2/2/11 12/14/11 14/13/11
f 3/4/10 5/6/10 15/15/10 13/12/10
f 6/5/11 4/3/11 14/13/11 16/16/11
f 5/6/10 7/8/10 17/17/10 15/15/10
f 8/7/11 6/5/11 16/16/11 18/18/11
f 7/8/10 9/10/10 19/19/10 17/17/10
f 10/9/11 8/7/11 18/18/11 20/20/11
f 9/10/12 10/9/12 20/20/12 19/19/12
