# exported by https://3dviewer.net
mtllib model.mtl
g Tetrahedron
v 0.5773502691896258 0.5773502691896258 0.5773502691896258
v -0.5773502691896258 -0.5773502691896258 0.5773502691896258
v 0.5773502691896258 -0.5773502691896258 -0.5773502691896258
v -0.5773502691896258 0.5773502691896258 -0.5773502691896258
vn 0.5773502691896257 -0.5773502691896257 0.5773502691896257
vn -0.5773502691896257 0.5773502691896257 0.5773502691896257
vn 0.5773502691896257 0.5773502691896257 -0.5773502691896257
vn -0.5773502691896257 -0.5773502691896257 -0.5773502691896257
usemtl Red
f 1//1 2//1 3//1
f 1//2 4//2 2//2
f 1//3 3//3 4//3
f 2//4 4//4 3//4
